#N canvas 924 -8 986 975 10;
#X declare -path ./lib;
#X obj 156 268 timer;
#X obj 152 246 bng 15 250 50 0 empty empty empty 17 7 0 10 #fcfcfc #000000 #000000;
#X floatatom 156 294 5 0 0 0 - - - 0;
#X obj 237 244 bng 15 250 50 0 empty empty empty 17 7 0 10 #fcfcfc #000000 #000000;
#X obj 336 262 print triggered;
#X obj 152 224 threshold~ 0.1 100 0.05 100;
#X obj 349 221 threshold~ 0.1 100 0.05 100;
#X obj 256 369 / 2;
#X floatatom 256 392 5 0 0 0 - - - 0;
#X floatatom 256 443 5 0 0 0 - - - 0;
#X text 314 393 one-way latency (ms);
#X text 314 444 one-way latency (sample frames);
#X text 213 293 two-way latency (ms);
#X obj 256 420 * 48;
#X obj 156 316 expr $f1*($f2/1000);
#X floatatom 156 339 5 0 0 0 - - - 0;
#X obj 322 21 tgl 18 0 empty empty empty 0 -9 0 10 #fcfcfc #000000 #000000 0 1;
#N canvas 0 0 443 181 click~ 0;
#X obj 29 21 inlet;
#X obj 29 75 tabplay~ \$0-click;
#X obj 29 49 bng 16 250 50 0 empty empty empty 0 -8 0 10 #fcfcfc #000000 #000000;
#X obj 77 20 table \$0-click 100;
#X obj 238 22 loadbang;
#X obj 238 43 f \$0;
#X msg 238 64 \; \$1-click const 0 \; \$1-click 0 1;
#X obj 206 19 bng 16 250 50 0 empty empty empty 0 -8 0 10 #fcfcfc #000000 #000000;
#X obj 29 105 outlet~;
#X connect 0 0 2 0;
#X connect 1 0 8 0;
#X connect 2 0 1 0;
#X connect 4 0 5 0;
#X connect 5 0 6 0;
#X connect 7 0 5 0;
#X restore 153 126 pd click~;
#X obj 540 12 table \$0-array 1000;
#X obj 455 148 tabwrite~ \$0-array;
#X obj 321 76 bng 16 250 50 0 empty empty empty 0 -8 0 10 #fcfcfc #000000 #000000;
#X obj 662 136 t b b;
#X obj 660 265 +;
#X msg 660 240 1;
#X obj 654 175 until;
#X obj 682 291 sel 1000;
#X obj 727 344 tabread \$0-array;
#X obj 727 365 abs;
#X obj 727 386 > 0.1;
#X obj 727 407 sel 1;
#X obj 727 315 t f f;
#X obj 761 444 f;
#X msg 617 388 none;
#X obj 617 409 spigot;
#X msg 657 379 1;
#X msg 671 459 0;
#X obj 181 549 print latency;
#X obj 34 132 noise~;
#X obj 34 153 *~;
#X msg 69 75 1 \, 0 10;
#X obj 69 96 line~;
#X obj 751 109 bng 16 250 50 0 empty empty empty 0 -8 0 10 #fcfcfc #000000 #000000;
#X obj 602 477 print;
#X obj 713 430 t b b;
#X obj 849 462 samplerate~;
#X obj 849 437 loadbang;
#X obj 761 465 t f f;
#X obj 763 533 pack 0 0;
#X obj 826 441 bng 16 250 50 0 empty empty empty 0 -8 0 10 #fcfcfc #000000 #000000;
#X obj 787 493 expr 1000*$f1 / $f2;
#X listbox 764 565 20 0 0 0 - - - 0;
#X obj 74 464 declare -path ./lib;
#X obj 393 701 ggee/shell;
#X obj 840 535 bng 16 250 50 0 empty empty empty 0 -8 0 10 #fcfcfc #000000 #000000;
#X obj 393 722 print;
#X msg 392 679 /usr/local/bin/latency-log \$1;
#X floatatom 861 513 10 0 0 0 - - - 0;
#X msg 710 188 3;
#X msg 224 192 set \$1;
#X msg 205 152 1;
#X msg 255 154 12;
#X floatatom 676 496 5 0 0 0 - - - 0;
#X obj 672 545 change;
#X obj 126 584 ggee/shell;
#X obj 164 624 print;
#X msg 127 547 date;
#X obj 124 661 list;
#X listbox 124 682 20 0 0 0 - - - 0;
#X obj 662 112 del 30;
#X obj 725 570 f;
#X floatatom 672 648 5 0 0 0 - - - 0;
#X obj 729 37 bng 16 250 50 0 empty empty empty 0 -8 0 10 #fcfcfc #000000 #000000;
#X msg 603 506 550;
#X obj 719 523 t b b;
#X text 756 36 reset;
#X obj 73 737 symbol;
#X symbolatom 72 770 10 0 0 0 - - - 0;
#X msg 73 716 \$4;
#X obj 154 514 t b b f;
#X obj 48 543 del 10;
#X obj 455 15 loadbang;
#X obj 607 59 del 200;
#X obj 540 33 bng 16 250 50 0 empty empty empty 0 -8 0 10 #fcfcfc #000000 #000000;
#X msg 362 27 1;
#X msg 492 61 \; pd dsp 1;
#X obj 684 871 netsend -u -b;
#X floatatom 684 892 5 0 0 0 - - - 0;
#X msg 696 768 disconnect \, connect 127.0.0.1 3012;
#X obj 533 803 oscparse;
#X listbox 533 824 20 0 0 0 - - - 0;
#X obj 605 628 bng 16 250 50 0 empty empty empty 0 -8 0 10 #fcfcfc #000000 #000000;
#X obj 524 862 list prepend send;
#X obj 524 883 list trim;
#X obj 533 782 oscformat latency-comp;
#X obj 616 719 expr 1000*$f1 / $f2;
#X floatatom 616 740 10 0 0 0 - - - 0;
#X text 714 647 additional delay in samples;
#X text 684 739 additional delay in ms;
#X obj 152 836 expr 1000*$f1 / $f2;
#X floatatom 152 857 10 0 0 0 - - - 0;
#X msg 156 807 800;
#X text 220 856 round-trip latency to compensate;
#X obj 672 627 expr 750-$f1;
#X obj 105 221 dac~ 12;
#X obj 349 194 adc~ 12;
#X obj 607 80 del 800;
#X obj 322 53 metro 200;
#X connect 0 0 2 0;
#X connect 1 0 0 0;
#X connect 2 0 7 0;
#X connect 2 0 14 0;
#X connect 3 0 0 1;
#X connect 5 0 1 0;
#X connect 6 0 3 0;
#X connect 7 0 8 0;
#X connect 8 0 13 0;
#X connect 13 0 9 0;
#X connect 14 0 15 0;
#X connect 16 0 106 0;
#X connect 17 0 19 0;
#X connect 17 0 5 0;
#X connect 17 0 103 0;
#X connect 20 0 19 0;
#X connect 20 0 17 0;
#X connect 20 0 68 0;
#X connect 21 0 24 0;
#X connect 21 1 57 0;
#X connect 21 1 34 0;
#X connect 22 0 25 0;
#X connect 23 0 22 0;
#X connect 24 0 23 0;
#X connect 25 0 24 1;
#X connect 25 0 32 0;
#X connect 25 1 30 0;
#X connect 26 0 27 0;
#X connect 27 0 28 0;
#X connect 28 0 29 0;
#X connect 29 0 43 0;
#X connect 30 0 26 0;
#X connect 30 1 31 1;
#X connect 30 1 22 1;
#X connect 31 0 46 0;
#X connect 32 0 33 0;
#X connect 34 0 33 1;
#X connect 35 0 33 1;
#X connect 37 0 38 0;
#X connect 39 0 40 0;
#X connect 40 0 38 1;
#X connect 41 0 21 0;
#X connect 43 0 35 0;
#X connect 43 0 31 0;
#X connect 43 1 24 1;
#X connect 44 0 49 1;
#X connect 44 0 56 0;
#X connect 44 0 94 1;
#X connect 44 0 98 1;
#X connect 45 0 44 0;
#X connect 46 0 47 0;
#X connect 46 0 61 0;
#X connect 46 1 49 0;
#X connect 47 0 50 0;
#X connect 47 0 53 0;
#X connect 48 0 44 0;
#X connect 49 0 47 1;
#X connect 52 0 54 0;
#X connect 55 0 52 0;
#X connect 57 0 22 1;
#X connect 58 0 103 0;
#X connect 58 0 104 0;
#X connect 59 0 58 0;
#X connect 60 0 58 0;
#X connect 61 0 62 0;
#X connect 61 0 69 1;
#X connect 62 0 78 0;
#X connect 62 0 102 0;
#X connect 63 0 64 0;
#X connect 63 0 66 0;
#X connect 65 0 63 0;
#X connect 66 0 67 0;
#X connect 66 0 77 0;
#X connect 68 0 21 0;
#X connect 70 0 94 0;
#X connect 71 0 73 0;
#X connect 72 0 69 0;
#X connect 72 0 61 0;
#X connect 73 0 62 0;
#X connect 73 1 69 0;
#X connect 75 0 76 0;
#X connect 76 0 55 0;
#X connect 77 0 75 0;
#X connect 78 0 79 0;
#X connect 78 1 36 0;
#X connect 78 2 55 0;
#X connect 79 0 65 0;
#X connect 80 0 81 0;
#X connect 80 0 84 0;
#X connect 81 0 87 0;
#X connect 81 0 105 0;
#X connect 83 0 16 0;
#X connect 85 0 86 0;
#X connect 87 0 85 0;
#X connect 88 0 89 0;
#X connect 90 0 70 0;
#X connect 91 0 92 0;
#X connect 92 0 85 0;
#X connect 93 0 88 0;
#X connect 93 0 91 0;
#X connect 94 0 95 0;
#X connect 95 0 93 0;
#X connect 98 0 99 0;
#X connect 100 0 98 0;
#X connect 102 0 70 0;
#X connect 104 0 6 0;
#X connect 104 0 19 0;
#X connect 105 0 83 0;
#X connect 106 0 20 0;
