#N struct 1005-slider float x float y float w float h float c;
#N canvas 375 40 1224 976 12;
#X declare -path lib;
#X obj 245 161 s \$0-colors;
#X obj 130 83 table \$0-colors 16;
#X obj 122 242 s \$0-mvu-01;
#X obj 217 45 declare -path lib;
#X obj 44 350 vsl 15 128 0 127 0 0 empty empty empty 0 -9 0 10 #fcfcfc
#000000 #000000 0 1;
#X msg 37 72 0 \$1;
#X obj 10 132 mvu 160 80 32 \$0-mvu-01 \$0-colors;
#X msg 292 122 const 900;
#X connect 4 0 5 0;
#X connect 5 0 6 0;
#X connect 7 0 0 0;
