#N canvas 0 0 872 791 12;
#X obj 97 332 noteout;
#X obj 289 40 vsl 20 170 0 127 0 0 empty empty empty 0 -9 0 12 #fcfcfc #000000 #000000 0 1;
#X msg 79 29 60;
#X msg 155 32 60;
#X obj 163 130 pack 0 0;
#X obj 79 119 pack 0 0;
#X obj 212 10 hradio 20 1 0 16 empty empty empty 0 -10 0 12 #fcfcfc #000000 #000000 0;
#X floatatom 212 83 5 0 0 0 - - - 0;
#X msg 83 185 \$1 64 \$2;
#X msg 167 185 \$1 0 \$2;
#X obj 212 35 + 1;
#X connect 2 0 5 0;
#X connect 3 0 4 0;
#X connect 4 0 9 0;
#X connect 5 0 8 0;
#X connect 6 0 10 0;
#X connect 7 0 4 1;
#X connect 7 0 5 1;
#X connect 8 0 0 0;
#X connect 9 0 0 0;
#X connect 10 0 7 0;
