#N canvas 971 17 689 696 12;
#X declare -path lib;
#X listbox 369 569 20 0 0 0 - - - 0;
#X obj 369 515 list prepend list;
#X obj 369 540 list trim;
#X obj 369 490 r \$1-ctl;
#X floatatom 68 285 5 0 0 0 - - - 0;
#X obj 83 232 loadbang;
#X msg 83 257 1;
#X obj 43 310 *~ 1;
#X obj 114 334 line~;
#X obj 44 361 *~;
#X msg 114 309 \$1 50;
#X floatatom 114 282 5 0 0 0 - - - 0;
#X obj 258 208 env~ 8192;
#X obj 258 233 - 100;
#X obj 259 262 vu 15 120 empty empty -1 -8 0 10 #404040 #000000 1 0;
#X msg 439 304 vis \$1 \$2;
#X obj 196 542 pack 0 0;
#X obj 191 448 hradio 15 1 0 16 empty empty empty 0 -8 0 10 #fcfcfc #000000 #000000 0;
#X obj 191 468 + 1;
#X obj 224 471 tgl 15 0 empty empty empty 17 7 0 10 #fcfcfc #000000 #000000 0 1;
#X obj 483 22 env~ 8192;
#X obj 483 47 - 100;
#X obj 484 76 vu 15 120 empty empty -1 -8 0 10 #404040 #000000 1 0;
#X obj 223 497 t b f;
#X obj 383 64 loadbang;
#X msg 383 89 \; pd dsp 1;
#X obj 13 39 r orgel-ctl;
#N canvas 286 23 1205 669 dispatch-ctl 0;
#X obj 37 37 inlet;
#X obj 37 62 route level delay q gain osc-level;
#X msg 37 242 \$1 level \$2;
#X msg 225 116 \$1 osc-level \$2;
#X msg 178 145 \$1 gain \$2;
#X msg 131 176 \$1 q \$2;
#X msg 84 211 \$1 delay \$2;
#X obj 125 302 t a;
#X obj 416 125 list prepend all;
#X msg 153 26 level 1 0.4;
#X msg 294 32 ramp-up 293;
#X obj 73 353 list prepend set;
#X obj 73 378 list trim;
#X msg 73 403 all mlevel 1 92.91;
#X obj 416 150 list trim;
#X obj 125 327 outlet;
#X obj 272 275 outlet;
#X obj 326 276 outlet;
#X obj 272 88 route phase main id;
#X obj 405 229 symbol;
#X obj 405 261 outlet;
#X floatatom 190 91 5 0 0 0 - - - 0;
#X obj 528 179 route orgel01 orgel02 orgel03 orgel04 orgel05 orgel06 orgel07 orgel08 orgel09 orgel10;
#X msg 527 224 1;
#X msg 564 227 2;
#X msg 603 225 3;
#X msg 641 226 4;
#X msg 685 226 5;
#X msg 724 227 6;
#X msg 762 226 7;
#X msg 799 228 8;
#X msg 842 227 9;
#X msg 881 231 10;
#X floatatom 635 284 5 0 0 0 - - - 0;
#X msg 720 134 orgel08;
#X obj 635 306 outlet;
#X connect 0 0 1 0;
#X connect 1 0 2 0;
#X connect 1 1 6 0;
#X connect 1 2 5 0;
#X connect 1 3 4 0;
#X connect 1 3 21 0;
#X connect 1 4 3 0;
#X connect 1 5 18 0;
#X connect 2 0 7 0;
#X connect 3 0 7 0;
#X connect 4 0 7 0;
#X connect 5 0 7 0;
#X connect 6 0 7 0;
#X connect 7 0 11 0;
#X connect 7 0 15 0;
#X connect 8 0 14 0;
#X connect 9 0 1 0;
#X connect 10 0 1 0;
#X connect 11 0 12 0;
#X connect 12 0 13 0;
#X connect 14 0 7 0;
#X connect 18 0 16 0;
#X connect 18 1 17 0;
#X connect 18 2 19 0;
#X connect 18 2 22 0;
#X connect 18 3 8 0;
#X connect 19 0 20 0;
#X connect 22 0 23 0;
#X connect 22 1 24 0;
#X connect 22 2 25 0;
#X connect 22 3 26 0;
#X connect 22 4 27 0;
#X connect 22 5 28 0;
#X connect 22 6 29 0;
#X connect 22 7 30 0;
#X connect 22 8 31 0;
#X connect 22 9 32 0;
#X connect 23 0 33 0;
#X connect 24 0 33 0;
#X connect 25 0 33 0;
#X connect 26 0 33 0;
#X connect 27 0 33 0;
#X connect 28 0 33 0;
#X connect 29 0 33 0;
#X connect 30 0 33 0;
#X connect 31 0 33 0;
#X connect 32 0 33 0;
#X connect 33 0 35 0;
#X connect 34 0 22 0;
#X restore 43 82 pd dispatch-ctl;
#X obj 43 175 clone -s 1 orgelmodulvoice 16 \$0;
#X text 65 109 phase;
#X symbolatom 145 111 10 0 0 0 - - - 0;
#X obj 13 596 print orgelmodul-in;
#X obj 13 570 spigot;
#X obj 52 518 r *debug*;
#X obj 52 543 tgl 20 0 empty empty empty 0 -10 0 12 #fcfcfc #000000 #000000 0 1;
#X text 118 136 main;
#N canvas 491 41 1233 975 init 0;
#X obj 594 11 r id;
#X msg 626 96 id \$1;
#X obj 626 66 symbol;
#X obj 246 188 textfile;
#X obj 246 118 route bang;
#X obj 246 146 until;
#X obj 246 65 bng 20 250 50 0 empty empty empty 0 -10 0 12 #fcfcfc #000000 #000000;
#X obj 594 37 t b a;
#X obj 247 222 route gui;
#X obj 307 253 route orgel01;
#X obj 180 255 route ip;
#X obj 631 290 r \$0-measure-data;
#X obj 631 320 list prepend;
#X obj 645 647 oscformat;
#X floatatom 645 730 5 0 0 0 - - - 0;
#X obj 629 349 list split 2;
#X obj 558 436 list prepend set;
#X obj 558 461 list trim;
#X obj 560 551 list;
#X obj 560 576 list trim;
#X obj 645 700 netsend -b -u;
#X obj 578 498 t b a;
#X obj 629 380 t a a;
#X msg 729 646 disconnect \, connect \$1 \$2;
#X obj 307 402 netreceive -b -u;
#X msg 307 377 listen \$2;
#X obj 470 651 outlet;
#X msg 246 93 read ./config/osc-setup.txt \, rewind \, bang;
#X obj 218 297 list;
#X obj 307 313 list;
#X obj 278 519 oscparse;
#X obj 209 696 print osc-in;
#X obj 278 543 list split 1;
#X obj 318 572 list trim;
#X obj 307 278 route ip out;
#X obj 347 312 s \$0-out-chan;
#X listbox 729 678 20 0 0 0 - - - 0;
#X floatatom 387 377 5 0 0 0 - - - 0;
#X msg 387 347 \$2;
#X obj 209 668 spigot;
#X obj 287 616 tgl 20 0 empty empty empty 0 -10 0 12 #fcfcfc #000000 #000000 0 1;
#X connect 0 0 7 0;
#X connect 1 0 26 0;
#X connect 2 0 1 0;
#X connect 2 0 9 1;
#X connect 2 0 12 1;
#X connect 3 0 8 0;
#X connect 3 1 5 1;
#X connect 4 0 5 0;
#X connect 4 1 3 0;
#X connect 5 0 3 0;
#X connect 6 0 27 0;
#X connect 7 0 6 0;
#X connect 7 1 2 0;
#X connect 8 0 10 0;
#X connect 8 1 9 0;
#X connect 9 0 34 0;
#X connect 10 0 28 0;
#X connect 11 0 12 0;
#X connect 12 0 15 0;
#X connect 13 0 20 0;
#X connect 15 0 22 0;
#X connect 15 1 18 1;
#X connect 16 0 17 0;
#X connect 17 0 21 0;
#X connect 18 0 19 0;
#X connect 19 0 13 0;
#X connect 20 0 14 0;
#X connect 21 0 18 0;
#X connect 21 1 13 0;
#X connect 22 0 16 0;
#X connect 23 0 20 0;
#X connect 24 0 30 0;
#X connect 25 0 24 0;
#X connect 27 0 4 0;
#X connect 28 0 23 0;
#X connect 28 0 36 0;
#X connect 29 0 25 0;
#X connect 29 0 38 0;
#X connect 30 0 32 0;
#X connect 30 0 39 0;
#X connect 32 1 33 0;
#X connect 33 0 26 0;
#X connect 34 0 29 0;
#X connect 34 1 35 0;
#X connect 38 0 37 0;
#X connect 39 0 31 0;
#X connect 40 0 39 1;
#X restore 104 41 pd init;
#X obj 170 41 declare -path lib;
#X obj 246 392 noise~;
#X obj 506 370 env~ 8192;
#X obj 506 395 - 100;
#X obj 507 424 vu 15 120 empty empty -1 -8 0 10 #404040 #000000 1 0;
#X msg 142 398 set \$1;
#X obj 112 359 r \$0-out-chan;
#X floatatom 100 398 5 0 0 0 - - - 0;
#X floatatom 556 77 5 0 0 0 - - - 0;
#X msg 228 64 set \$1;
#X floatatom 168 86 5 0 0 0 - - - 0;
#X obj 44 480 dac~ 1;
#X obj 263 88 adc~ 1;
#X connect 1 0 2 0;
#X connect 2 0 0 0;
#X connect 3 0 1 0;
#X connect 4 0 7 1;
#X connect 5 0 6 0;
#X connect 6 0 4 0;
#X connect 7 0 9 0;
#X connect 8 0 9 1;
#X connect 9 0 39 0;
#X connect 9 0 48 0;
#X connect 10 0 8 0;
#X connect 11 0 10 0;
#X connect 12 0 13 0;
#X connect 13 0 14 0;
#X connect 15 0 28 0;
#X connect 16 0 15 0;
#X connect 17 0 18 0;
#X connect 18 0 16 0;
#X connect 19 0 23 0;
#X connect 20 0 21 0;
#X connect 21 0 22 0;
#X connect 21 0 45 0;
#X connect 23 0 16 0;
#X connect 23 1 16 1;
#X connect 24 0 25 0;
#X connect 26 0 27 0;
#X connect 26 0 32 0;
#X connect 27 0 28 0;
#X connect 27 1 4 0;
#X connect 27 2 11 0;
#X connect 27 3 30 0;
#X connect 27 4 47 0;
#X connect 28 0 7 0;
#X connect 28 0 12 0;
#X connect 32 0 31 0;
#X connect 33 0 34 0;
#X connect 34 0 32 1;
#X connect 36 0 27 0;
#X connect 36 0 32 0;
#X connect 39 0 40 0;
#X connect 40 0 41 0;
#X connect 42 0 48 0;
#X connect 43 0 42 0;
#X connect 43 0 44 0;
#X connect 46 0 49 0;
#X connect 47 0 46 0;
#X connect 49 0 28 1;
#X connect 49 0 20 0;
