#N canvas 2592 199 450 300 12;
#X obj 120 206 netsend -u -b;
#X msg 163 100 disconnect \, connect 127.0.0.1 3052;
#X floatatom 120 231 5 0 0 0 - - - 0;
#X msg 194 19 set tschuess;
#X obj 30 109 oscparse;
#X obj 31 237 print;
#X obj 37 181 list trim;
#X obj 93 56 oscformat;
#X msg 40 1 set preset-ctl next-preset;
#X obj 32 37 bng 20 250 50 0 empty empty empty 0 -10 0 12 #fcfcfc #000000 #000000;
#X msg 113 27 4;
#X connect 0 0 2 0;
#X connect 1 0 0 0;
#X connect 3 0 7 0;
#X connect 4 0 6 0;
#X connect 6 0 5 0;
#X connect 7 0 0 0;
#X connect 7 0 4 0;
#X connect 8 0 7 0;
#X connect 9 0 7 0;
#X connect 10 0 7 0;
