#N struct 1022-rectangle float x float c;
#N struct 1022-pixel float x0 float y0;
#N struct 1022-slider float x float y float w float h float c;
#N struct 1040-rectangle float x float c;
#N struct 1040-pixel float x0 float y0;
#N struct 1040-slider float x float y float w float h float c;
#N struct 1058-rectangle float x float c;
#N struct 1058-pixel float x0 float y0;
#N struct 1058-slider float x float y float w float h float c;
#N struct 1087-rectangle float x float c;
#N struct 1087-pixel float x0 float y0;
#N struct 1087-slider float x float y float w float h float c;
#N struct 1106-rectangle float x float c;
#N struct 1106-pixel float x0 float y0;
#N struct 1106-slider float x float y float w float h float c;
#N struct 1108-slider float x float y float w float h float c;
#N struct 1127-rectangle float x float c;
#N struct 1127-pixel float x0 float y0;
#N struct 1127-slider float x float y float w float h float c;
#N struct 1145-rectangle float x float c;
#N struct 1145-pixel float x0 float y0;
#N struct 1145-slider float x float y float w float h float c;
#N struct 1163-rectangle float x float c;
#N struct 1163-pixel float x0 float y0;
#N struct 1163-slider float x float y float w float h float c;
#N struct 1192-rectangle float x float c;
#N struct 1192-pixel float x0 float y0;
#N struct 1192-slider float x float y float w float h float c;
#N struct 1211-rectangle float x float c;
#N struct 1211-pixel float x0 float y0;
#N struct 1211-slider float x float y float w float h float c;
#N struct 1213-slider float x float y float w float h float c;
#N struct 1232-rectangle float x float c;
#N struct 1232-pixel float x0 float y0;
#N struct 1232-slider float x float y float w float h float c;
#N struct 1250-rectangle float x float c;
#N struct 1250-pixel float x0 float y0;
#N struct 1250-slider float x float y float w float h float c;
#N struct 1268-rectangle float x float c;
#N struct 1268-pixel float x0 float y0;
#N struct 1268-slider float x float y float w float h float c;
#N struct 1297-rectangle float x float c;
#N struct 1297-pixel float x0 float y0;
#N struct 1297-slider float x float y float w float h float c;
#N struct 1316-rectangle float x float c;
#N struct 1316-pixel float x0 float y0;
#N struct 1316-slider float x float y float w float h float c;
#N struct 1318-slider float x float y float w float h float c;
#N struct 1337-rectangle float x float c;
#N struct 1337-pixel float x0 float y0;
#N struct 1337-slider float x float y float w float h float c;
#N struct 1355-rectangle float x float c;
#N struct 1355-pixel float x0 float y0;
#N struct 1355-slider float x float y float w float h float c;
#N struct 1373-rectangle float x float c;
#N struct 1373-pixel float x0 float y0;
#N struct 1373-slider float x float y float w float h float c;
#N struct 1402-rectangle float x float c;
#N struct 1402-pixel float x0 float y0;
#N struct 1402-slider float x float y float w float h float c;
#N struct 1421-rectangle float x float c;
#N struct 1421-pixel float x0 float y0;
#N struct 1421-slider float x float y float w float h float c;
#N struct 1423-slider float x float y float w float h float c;
#N struct 1452-rectangle float x float c;
#N struct 1452-pixel float x0 float y0;
#N struct 1452-slider float x float y float w float h float c;
#N struct 1470-rectangle float x float c;
#N struct 1470-pixel float x0 float y0;
#N struct 1470-slider float x float y float w float h float c;
#N struct 1488-rectangle float x float c;
#N struct 1488-pixel float x0 float y0;
#N struct 1488-slider float x float y float w float h float c;
#N struct 1517-rectangle float x float c;
#N struct 1517-pixel float x0 float y0;
#N struct 1517-slider float x float y float w float h float c;
#N struct 1536-rectangle float x float c;
#N struct 1536-pixel float x0 float y0;
#N struct 1536-slider float x float y float w float h float c;
#N struct 1538-slider float x float y float w float h float c;
#N struct 1557-rectangle float x float c;
#N struct 1557-pixel float x0 float y0;
#N struct 1557-slider float x float y float w float h float c;
#N struct 1575-rectangle float x float c;
#N struct 1575-pixel float x0 float y0;
#N struct 1575-slider float x float y float w float h float c;
#N struct 1593-rectangle float x float c;
#N struct 1593-pixel float x0 float y0;
#N struct 1593-slider float x float y float w float h float c;
#N struct 1622-rectangle float x float c;
#N struct 1622-pixel float x0 float y0;
#N struct 1622-slider float x float y float w float h float c;
#N struct 1641-rectangle float x float c;
#N struct 1641-pixel float x0 float y0;
#N struct 1641-slider float x float y float w float h float c;
#N struct 1643-slider float x float y float w float h float c;
#N struct 1662-rectangle float x float c;
#N struct 1662-pixel float x0 float y0;
#N struct 1662-slider float x float y float w float h float c;
#N struct 1680-rectangle float x float c;
#N struct 1680-pixel float x0 float y0;
#N struct 1680-slider float x float y float w float h float c;
#N struct 1698-rectangle float x float c;
#N struct 1698-pixel float x0 float y0;
#N struct 1698-slider float x float y float w float h float c;
#N struct 1727-rectangle float x float c;
#N struct 1727-pixel float x0 float y0;
#N struct 1727-slider float x float y float w float h float c;
#N struct 1746-rectangle float x float c;
#N struct 1746-pixel float x0 float y0;
#N struct 1746-slider float x float y float w float h float c;
#N struct 1748-slider float x float y float w float h float c;
#N struct 1767-rectangle float x float c;
#N struct 1767-pixel float x0 float y0;
#N struct 1767-slider float x float y float w float h float c;
#N struct 1785-rectangle float x float c;
#N struct 1785-pixel float x0 float y0;
#N struct 1785-slider float x float y float w float h float c;
#N struct 1803-rectangle float x float c;
#N struct 1803-pixel float x0 float y0;
#N struct 1803-slider float x float y float w float h float c;
#N struct 1832-rectangle float x float c;
#N struct 1832-pixel float x0 float y0;
#N struct 1832-slider float x float y float w float h float c;
#N struct 1851-rectangle float x float c;
#N struct 1851-pixel float x0 float y0;
#N struct 1851-slider float x float y float w float h float c;
#N struct 1853-slider float x float y float w float h float c;
#N struct 1872-rectangle float x float c;
#N struct 1872-pixel float x0 float y0;
#N struct 1872-slider float x float y float w float h float c;
#N struct 1890-rectangle float x float c;
#N struct 1890-pixel float x0 float y0;
#N struct 1890-slider float x float y float w float h float c;
#N struct 1908-rectangle float x float c;
#N struct 1908-pixel float x0 float y0;
#N struct 1908-slider float x float y float w float h float c;
#N struct 1937-rectangle float x float c;
#N struct 1937-pixel float x0 float y0;
#N struct 1937-slider float x float y float w float h float c;
#N struct 1956-rectangle float x float c;
#N struct 1956-pixel float x0 float y0;
#N struct 1956-slider float x float y float w float h float c;
#N struct 1958-slider float x float y float w float h float c;
#N struct 1977-rectangle float x float c;
#N struct 1977-pixel float x0 float y0;
#N struct 1977-slider float x float y float w float h float c;
#N struct 1995-rectangle float x float c;
#N struct 1995-pixel float x0 float y0;
#N struct 1995-slider float x float y float w float h float c;
#N struct 2013-rectangle float x float c;
#N struct 2013-pixel float x0 float y0;
#N struct 2013-slider float x float y float w float h float c;
#N struct 2042-rectangle float x float c;
#N struct 2042-pixel float x0 float y0;
#N struct 2042-slider float x float y float w float h float c;
#N struct 2061-rectangle float x float c;
#N struct 2061-pixel float x0 float y0;
#N struct 2061-slider float x float y float w float h float c;
#N struct 2063-slider float x float y float w float h float c;
#N canvas 2 2 907 629 12;
#X declare -path lib;
#X listbox 147 621 40 0 0 0 - - - 36;
#X obj 3 620 list prepend list;
#X obj 3 645 list trim;
#X obj 3 5 orgelmodul \$0 orgel01 1;
#X obj 3 621 r \$0-ctl;
#X obj 371 5 orgelmodul \$0 orgel03 3;
#X obj 739 5 orgelmodul \$0 orgel05 5;
#X obj 555 5 orgelmodul \$0 orgel04 4;
#N canvas 644 2 1096 975 osc-handling 0;
#X obj 95 45 oscparse;
#X obj 95 74 list trim;
#X obj 165 542 oscformat;
#X floatatom 89 622 5 0 0 0 - - - 0;
#X obj 121 327 list split 2;
#X obj 121 385 list prepend set;
#X obj 121 414 list trim;
#X obj 124 498 list;
#X obj 121 443 t b a;
#X obj 127 782 oscparse;
#X listbox 127 811 37 0 0 0 - - - 0;
#X msg 331 576 disconnect \, connect 127.0.0.1 3011;
#X obj 331 523 loadbang;
#X obj 331 552 bng 15 250 50 0 empty empty empty 17 7 0 10 #fcfcfc #000000 #000000;
#X obj 93 187 r \$0-measure-data;
#X obj 121 227 spigot;
#X obj 121 256 print mlevel;
#X obj 157 227 tgl 15 0 empty empty empty 17 7 0 10 #fcfcfc #000000 #000000 0 1;
#X obj 95 16 netreceive -b -u 3010;
#X obj 104 593 netsend -b -u;
#N canvas 262 138 665 419 dsp-orgel-dispatch 0;
#X obj 17 23 inlet;
#X obj 17 99 route orgel01 orgel02 orgel03 orgel04 orgel05 orgel06 orgel07 orgel08 orgel09 orgel10, f 86;
#X obj 17 358 osc-modul;
#X obj 78 332 osc-modul;
#X obj 136 306 osc-modul;
#X obj 196 285 osc-modul;
#X obj 256 260 osc-modul;
#X obj 316 236 osc-modul;
#X obj 376 212 osc-modul;
#X obj 436 187 osc-modul;
#X obj 496 162 osc-modul;
#X obj 556 135 osc-modul;
#X connect 0 0 1 0;
#X connect 1 0 2 0;
#X connect 1 1 3 0;
#X connect 1 2 4 0;
#X connect 1 3 5 0;
#X connect 1 4 6 0;
#X connect 1 5 7 0;
#X connect 1 6 8 0;
#X connect 1 7 9 0;
#X connect 1 8 10 0;
#X connect 1 9 11 0;
#X restore 328 757 pd dsp-orgel-dispatch;
#X obj 121 356 t a a;
#X msg 410 641 list \$1;
#X obj 328 673 list prepend;
#X obj 328 699 list trim;
#X obj 596 481 textfile;
#X msg 596 394 read ./config/osc-setup.txt \, rewind \, bang;
#X obj 596 423 route bang;
#X obj 596 452 until;
#X obj 596 336 r \$0-osc-init;
#X obj 596 365 bng 20 250 50 0 empty empty empty 0 -10 0 12 #fcfcfc #000000 #000000;
#X obj 596 510 route #;
#N canvas 282 74 926 791 mlevel->vu 0;
#X obj 10 61 list split 1;
#X obj 50 124 route mlevel;
#X obj 50 93 list trim;
#X obj 85 34 t a a;
#X obj 120 61 list split 1;
#X obj 42 317 list prepend;
#X obj 42 381 pack s 0 0 \$0;
#X msg 42 353 \$1-vu \$2 \$3;
#X msg 42 408 \; \$4-\$1 \$2 \$3, f 17;
#X obj 42 226 unpack 0 0;
#X obj 42 282 pack 0 0;
#X obj 42 251 - 1;
#X obj 85 8 inlet;
#X obj 211 208 list prepend;
#X obj 214 134 list prepend mlevel;
#X obj 211 233 list trim;
#X obj 211 262 outlet;
#X connect 0 1 2 0;
#X connect 1 0 9 0;
#X connect 1 0 14 0;
#X connect 2 0 1 0;
#X connect 3 0 0 0;
#X connect 3 1 4 0;
#X connect 4 0 5 1;
#X connect 4 0 13 1;
#X connect 5 0 7 0;
#X connect 6 0 8 0;
#X connect 7 0 6 0;
#X connect 9 0 11 0;
#X connect 9 1 10 1;
#X connect 10 0 5 0;
#X connect 11 0 10 0;
#X connect 12 0 3 0;
#X connect 13 0 15 0;
#X connect 14 0 13 0;
#X connect 15 0 16 0;
#X restore 495 110 pd mlevel->vu;
#X obj 95 103 route preset-ctl;
#X obj 95 132 s \$0-preset-ctl;
#X text 361 553 Lisp Connection;
#X text 267 15 receive from Lisp;
#X text 487 725 Dispatch message to DSP patch PD instances of the organs;
#X text 658 468 setup of the osc ip and ports of the remote pd dsp patches.;
#X msg 177 81 preset-ctl preset-no 10;
#X msg 269 293 preset-ctl next-preset;
#X obj 185 879 print oscformat-out;
#X obj 560 267 print osc-in;
#X obj 366 187 print osc-from-lisp;
#X msg 322 110 orgel01 level 1 0.5;
#X obj 247 227 s \$0-ctlin;
#X obj 161 293 r \$0-ctl;
#X obj 414 498 oscformat;
#X obj 450 267 list split 2;
#X obj 450 324 list prepend set;
#X obj 450 356 list trim;
#X obj 471 437 list;
#X obj 471 466 list trim;
#X obj 471 408 t b a;
#X obj 450 296 t a a;
#X obj 35 227 bng 20 250 50 0 empty empty empty 0 -10 0 12 #fcfcfc #000000 #000000;
#X obj 257 110 bng 20 250 50 0 empty empty empty 0 -10 0 12 #fcfcfc #000000 #000000;
#X listbox 37 673 20 0 0 0 - - - 0;
#X obj 308 47 print netreceive-in;
#X obj 221 45 route 0;
#X obj 497 50 oscparse;
#X obj 495 81 list trim;
#X obj 496 16 netreceive -b -u 3012;
#X text 584 46 receive from dsp modules;
#X obj 32 45 bng 20 250 50 0 empty empty empty 0 -10 0 12 #fcfcfc #000000 #000000;
#N canvas 151 235 450 748 split-ip 0;
#X obj 125 506 list trim;
#X obj 120 327 t a a;
#X obj 125 481 list prepend;
#X msg 176 221 orgel01 ip localhost 3031;
#X msg 216 243 orgel01 out 1;
#X obj 146 291 list;
#X msg 152 362 \$2;
#X obj 125 531 route ip;
#X obj 171 574 list split 1;
#X obj 144 612 list trim;
#X obj 199 72 inlet;
#X obj 68 646 outlet to-oscformat;
#X obj 234 646 outlet direct;
#X connect 0 0 7 0;
#X connect 1 0 2 0;
#X connect 1 1 6 0;
#X connect 2 0 0 0;
#X connect 3 0 5 0;
#X connect 4 0 5 0;
#X connect 5 0 1 0;
#X connect 6 0 2 1;
#X connect 7 0 12 0;
#X connect 7 1 8 0;
#X connect 8 1 9 0;
#X connect 9 0 11 0;
#X connect 10 0 5 0;
#X restore 642 555 pd split-ip;
#X obj 199 417 list prepend papierrohrorgel-pd;
#X obj 267 622 oscformat;
#X obj 216 497 list;
#N canvas 410 475 450 300 latency-comp 0;
#X obj 176 49 inlet;
#X obj 177 79 route latency-comp;
#X floatatom 177 102 5 0 0 0 - - - 0;
#X msg 177 150 orgel01 \, orgel02 \, orgel03 \, orgel03 \, orgel04 \, orgel05 \, orgel06 \, orgel07 \, orgel08;
#X obj 177 192 pack s 0;
#X obj 177 124 t b f;
#X msg 177 215 \$1 latency-comp \$2;
#X obj 177 238 outlet;
#X connect 0 0 1 0;
#X connect 1 0 2 0;
#X connect 2 0 5 0;
#X connect 3 0 4 0;
#X connect 4 0 6 0;
#X connect 5 0 3 0;
#X connect 5 1 4 1;
#X connect 6 0 7 0;
#X restore 625 111 pd latency-comp;
#X connect 0 0 1 0;
#X connect 1 0 33 0;
#X connect 2 0 9 0;
#X connect 2 0 57 0;
#X connect 2 0 19 0;
#X connect 4 0 21 0;
#X connect 4 1 66 0;
#X connect 4 1 68 1;
#X connect 5 0 6 0;
#X connect 6 0 8 0;
#X connect 7 0 2 0;
#X connect 8 0 7 0;
#X connect 8 0 68 0;
#X connect 8 1 2 0;
#X connect 8 1 67 0;
#X connect 9 0 10 0;
#X connect 11 0 19 0;
#X connect 12 0 13 0;
#X connect 13 0 11 0;
#X connect 14 0 4 0;
#X connect 14 0 15 0;
#X connect 14 0 55 0;
#X connect 15 0 16 0;
#X connect 17 0 15 1;
#X connect 18 0 0 0;
#X connect 18 0 59 0;
#X connect 18 0 64 0;
#X connect 19 0 3 0;
#X connect 21 0 5 0;
#X connect 21 1 22 0;
#X connect 22 0 23 1;
#X connect 23 0 24 0;
#X connect 24 0 20 0;
#X connect 25 0 31 0;
#X connect 25 1 28 1;
#X connect 26 0 27 0;
#X connect 27 0 28 0;
#X connect 27 1 25 0;
#X connect 28 0 25 0;
#X connect 29 0 30 0;
#X connect 30 0 26 0;
#X connect 31 1 65 0;
#X connect 31 1 20 0;
#X connect 32 0 4 0;
#X connect 33 0 34 0;
#X connect 33 1 45 0;
#X connect 33 1 48 0;
#X connect 33 1 56 0;
#X connect 39 0 33 0;
#X connect 40 0 4 0;
#X connect 44 0 45 0;
#X connect 46 0 4 0;
#X connect 47 0 23 0;
#X connect 48 0 54 0;
#X connect 48 1 51 1;
#X connect 49 0 50 0;
#X connect 50 0 53 0;
#X connect 51 0 52 0;
#X connect 52 0 47 0;
#X connect 53 0 51 0;
#X connect 53 1 47 0;
#X connect 54 0 49 0;
#X connect 54 1 22 0;
#X connect 59 0 58 0;
#X connect 60 0 61 0;
#X connect 61 0 32 0;
#X connect 61 0 69 0;
#X connect 62 0 60 0;
#X connect 66 0 7 1;
#X connect 67 0 23 0;
#X connect 68 0 67 0;
#X connect 69 0 4 0;
#X restore 147 674 pd osc-handling;
#X obj 290 691 \$0;
#X floatatom 290 716 5 0 0 0 - - - 0;
#X obj 290 671 bng 15 250 50 0 empty empty empty 17 7 0 10 #fcfcfc #000000 #000000;
#X obj 923 5 orgelmodul \$0 orgel06 6;
#X obj 3 670 declare -path lib;
#N canvas 2774 117 976 562 init 0;
#X obj 200 168 s \$0-colors;
#X obj 17 24 loadbang;
#X obj 200 81 bng 15 250 50 0 empty empty empty 17 7 0 10 #fcfcfc #000000 #000000;
#X msg 200 103 333 959 995 599 779 595 977 888 888 888;
#X msg 200 129 0 \$1 \$2 \$2 \$3 \$2 \$4 \$3 \$5 \$2 \$6 \$4 \$7 \$3 \$8 \$5 \$9 \$2 \$2 \$2 \$3 \$2 \$4 \$3 \$5 \$2 \$6 \$4 \$7 \$3 \$8 \$5 \$9 \$2;
#X obj 469 259 \$0;
#X floatatom 469 283 5 0 0 0 - - - 0;
#X obj 473 234 bng 15 250 50 0 empty empty empty 17 7 0 10 #fcfcfc #000000 #000000;
#X obj 17 94 \$0;
#X obj 519 253 vsl 15 128 1 16 1 0 empty empty empty 0 -9 0 10 #fcfcfc #000000 #000000 0 1;
#X floatatom 525 393 5 0 0 0 - - - 0;
#X obj 518 193 loadbang;
#X msg 518 222 1;
#X obj 517 423 s \$0-gain;
#X obj 530 61 table \$0-colors 18;
#X obj 528 87 table \$0-vu-colors 18;
#X obj 17 49 t b b;
#X msg 17 125 \; \$1-vu-colors const 357 \; \$1-osc-init bang;
#X connect 1 0 16 0;
#X connect 2 0 3 0;
#X connect 3 0 4 0;
#X connect 4 0 0 0;
#X connect 5 0 6 0;
#X connect 7 0 5 0;
#X connect 8 0 17 0;
#X connect 9 0 10 0;
#X connect 10 0 13 0;
#X connect 11 0 12 0;
#X connect 12 0 9 0;
#X connect 16 0 8 0;
#X connect 16 1 2 0;
#X restore 3 695 pd init;
#X obj 187 5 orgelmodul \$0 orgel02 2;
#X obj 1291 5 orgelmodul \$0 orgel08 8;
#X obj 1107 5 orgelmodul \$0 orgel07 7;
#X obj 1475 5 orgelmodul \$0 orgel09 9;
#X obj 1659 5 orgelmodul \$0 orgel10 10;
#N canvas 0 687 450 300 main-master 0;
#X msg 25 106 1 \, 2 \, 3 \, 4 \, 5 \, 6 \, 7 \, 8 \, 9 \, 10;
#X obj 25 130 makefilename \$0-orgel%02d-main;
#X obj 25 154 pack s 0;
#X obj 25 228 send;
#X obj 25 82 t b f;
#X msg 25 178 \$2 \$1;
#X obj 25 203 unpack 0 s;
#X obj 25 46 inlet;
#X connect 0 0 1 0;
#X connect 1 0 2 0;
#X connect 2 0 5 0;
#X connect 4 0 0 0;
#X connect 4 1 2 1;
#X connect 5 0 6 0;
#X connect 6 0 3 0;
#X connect 6 1 3 1;
#X connect 7 0 4 0;
#X restore 1032 646 pd main-master;
#X obj 5 756 hsl 162 19 0 1 0 0 empty empty empty -2 -10 0 12 #fcfcfc #000000 #000000 0 1;
#X obj 352 671 preset-ctl \$0;
#X obj 70 621 r \$0-ctlin;
#X connect 1 0 2 0;
#X connect 2 0 0 0;
#X connect 4 0 1 0;
#X connect 9 0 10 0;
#X connect 11 0 9 0;
#X connect 21 0 20 0;
#X connect 23 0 1 0;
