#N struct 1023-rectangle float x float c;
#N struct 1023-pixel float x0 float y0;
#N struct 1023-slider float x float y float w float h float c;
#N struct 1041-rectangle float x float c;
#N struct 1041-pixel float x0 float y0;
#N struct 1041-slider float x float y float w float h float c;
#N struct 1059-rectangle float x float c;
#N struct 1059-pixel float x0 float y0;
#N struct 1059-slider float x float y float w float h float c;
#N struct 1088-rectangle float x float c;
#N struct 1088-pixel float x0 float y0;
#N struct 1088-slider float x float y float w float h float c;
#N struct 1107-rectangle float x float c;
#N struct 1107-pixel float x0 float y0;
#N struct 1107-slider float x float y float w float h float c;
#N struct 1109-slider float x float y float w float h float c;
#N struct 1128-rectangle float x float c;
#N struct 1128-pixel float x0 float y0;
#N struct 1128-slider float x float y float w float h float c;
#N struct 1146-rectangle float x float c;
#N struct 1146-pixel float x0 float y0;
#N struct 1146-slider float x float y float w float h float c;
#N struct 1164-rectangle float x float c;
#N struct 1164-pixel float x0 float y0;
#N struct 1164-slider float x float y float w float h float c;
#N struct 1193-rectangle float x float c;
#N struct 1193-pixel float x0 float y0;
#N struct 1193-slider float x float y float w float h float c;
#N struct 1212-rectangle float x float c;
#N struct 1212-pixel float x0 float y0;
#N struct 1212-slider float x float y float w float h float c;
#N struct 1214-slider float x float y float w float h float c;
#N struct 1233-rectangle float x float c;
#N struct 1233-pixel float x0 float y0;
#N struct 1233-slider float x float y float w float h float c;
#N struct 1251-rectangle float x float c;
#N struct 1251-pixel float x0 float y0;
#N struct 1251-slider float x float y float w float h float c;
#N struct 1269-rectangle float x float c;
#N struct 1269-pixel float x0 float y0;
#N struct 1269-slider float x float y float w float h float c;
#N struct 1298-rectangle float x float c;
#N struct 1298-pixel float x0 float y0;
#N struct 1298-slider float x float y float w float h float c;
#N struct 1317-rectangle float x float c;
#N struct 1317-pixel float x0 float y0;
#N struct 1317-slider float x float y float w float h float c;
#N struct 1319-slider float x float y float w float h float c;
#N struct 1338-rectangle float x float c;
#N struct 1338-pixel float x0 float y0;
#N struct 1338-slider float x float y float w float h float c;
#N struct 1356-rectangle float x float c;
#N struct 1356-pixel float x0 float y0;
#N struct 1356-slider float x float y float w float h float c;
#N struct 1374-rectangle float x float c;
#N struct 1374-pixel float x0 float y0;
#N struct 1374-slider float x float y float w float h float c;
#N struct 1403-rectangle float x float c;
#N struct 1403-pixel float x0 float y0;
#N struct 1403-slider float x float y float w float h float c;
#N struct 1422-rectangle float x float c;
#N struct 1422-pixel float x0 float y0;
#N struct 1422-slider float x float y float w float h float c;
#N struct 1424-slider float x float y float w float h float c;
#N struct 1453-rectangle float x float c;
#N struct 1453-pixel float x0 float y0;
#N struct 1453-slider float x float y float w float h float c;
#N struct 1471-rectangle float x float c;
#N struct 1471-pixel float x0 float y0;
#N struct 1471-slider float x float y float w float h float c;
#N struct 1489-rectangle float x float c;
#N struct 1489-pixel float x0 float y0;
#N struct 1489-slider float x float y float w float h float c;
#N struct 1518-rectangle float x float c;
#N struct 1518-pixel float x0 float y0;
#N struct 1518-slider float x float y float w float h float c;
#N struct 1537-rectangle float x float c;
#N struct 1537-pixel float x0 float y0;
#N struct 1537-slider float x float y float w float h float c;
#N struct 1539-slider float x float y float w float h float c;
#N struct 1558-rectangle float x float c;
#N struct 1558-pixel float x0 float y0;
#N struct 1558-slider float x float y float w float h float c;
#N struct 1576-rectangle float x float c;
#N struct 1576-pixel float x0 float y0;
#N struct 1576-slider float x float y float w float h float c;
#N struct 1594-rectangle float x float c;
#N struct 1594-pixel float x0 float y0;
#N struct 1594-slider float x float y float w float h float c;
#N struct 1623-rectangle float x float c;
#N struct 1623-pixel float x0 float y0;
#N struct 1623-slider float x float y float w float h float c;
#N struct 1642-rectangle float x float c;
#N struct 1642-pixel float x0 float y0;
#N struct 1642-slider float x float y float w float h float c;
#N struct 1644-slider float x float y float w float h float c;
#N struct 1663-rectangle float x float c;
#N struct 1663-pixel float x0 float y0;
#N struct 1663-slider float x float y float w float h float c;
#N struct 1681-rectangle float x float c;
#N struct 1681-pixel float x0 float y0;
#N struct 1681-slider float x float y float w float h float c;
#N struct 1699-rectangle float x float c;
#N struct 1699-pixel float x0 float y0;
#N struct 1699-slider float x float y float w float h float c;
#N struct 1728-rectangle float x float c;
#N struct 1728-pixel float x0 float y0;
#N struct 1728-slider float x float y float w float h float c;
#N struct 1747-rectangle float x float c;
#N struct 1747-pixel float x0 float y0;
#N struct 1747-slider float x float y float w float h float c;
#N struct 1749-slider float x float y float w float h float c;
#N struct 1768-rectangle float x float c;
#N struct 1768-pixel float x0 float y0;
#N struct 1768-slider float x float y float w float h float c;
#N struct 1786-rectangle float x float c;
#N struct 1786-pixel float x0 float y0;
#N struct 1786-slider float x float y float w float h float c;
#N struct 1804-rectangle float x float c;
#N struct 1804-pixel float x0 float y0;
#N struct 1804-slider float x float y float w float h float c;
#N struct 1833-rectangle float x float c;
#N struct 1833-pixel float x0 float y0;
#N struct 1833-slider float x float y float w float h float c;
#N struct 1852-rectangle float x float c;
#N struct 1852-pixel float x0 float y0;
#N struct 1852-slider float x float y float w float h float c;
#N struct 1854-slider float x float y float w float h float c;
#N struct 1873-rectangle float x float c;
#N struct 1873-pixel float x0 float y0;
#N struct 1873-slider float x float y float w float h float c;
#N struct 1891-rectangle float x float c;
#N struct 1891-pixel float x0 float y0;
#N struct 1891-slider float x float y float w float h float c;
#N struct 1909-rectangle float x float c;
#N struct 1909-pixel float x0 float y0;
#N struct 1909-slider float x float y float w float h float c;
#N struct 1938-rectangle float x float c;
#N struct 1938-pixel float x0 float y0;
#N struct 1938-slider float x float y float w float h float c;
#N struct 1957-rectangle float x float c;
#N struct 1957-pixel float x0 float y0;
#N struct 1957-slider float x float y float w float h float c;
#N struct 1959-slider float x float y float w float h float c;
#N struct 1978-rectangle float x float c;
#N struct 1978-pixel float x0 float y0;
#N struct 1978-slider float x float y float w float h float c;
#N struct 1996-rectangle float x float c;
#N struct 1996-pixel float x0 float y0;
#N struct 1996-slider float x float y float w float h float c;
#N struct 2014-rectangle float x float c;
#N struct 2014-pixel float x0 float y0;
#N struct 2014-slider float x float y float w float h float c;
#N struct 2043-rectangle float x float c;
#N struct 2043-pixel float x0 float y0;
#N struct 2043-slider float x float y float w float h float c;
#N struct 2062-rectangle float x float c;
#N struct 2062-pixel float x0 float y0;
#N struct 2062-slider float x float y float w float h float c;
#N struct 2064-slider float x float y float w float h float c;
#N canvas 3472 20 907 629 12;
#X declare -path lib;
#X listbox 147 625 40 0 0 0 - - - 36;
#X obj 3 646 list prepend list;
#X obj 3 671 list trim;
#X obj 3 5 orgelmodul \$0 orgel01 1;
#X obj 3 621 r \$0-ctl;
#X obj 371 5 orgelmodul \$0 orgel03 3;
#X obj 739 5 orgelmodul \$0 orgel05 5;
#X obj 555 5 orgelmodul \$0 orgel04 4;
#N canvas 1134 2 847 991 osc-handling 1;
#X obj 95 56 oscparse;
#X obj 94 81 list trim;
#X obj 84 554 oscformat;
#X floatatom 89 622 5 0 0 0 - - - 0;
#X obj 121 327 list split 2;
#X obj 121 383 list prepend set;
#X obj 121 408 list trim;
#X obj 124 498 list;
#X obj 124 523 list trim;
#X obj 142 445 t b a;
#X obj 127 782 oscparse;
#X listbox 127 811 37 0 0 0 - - - 0;
#X msg 331 578 disconnect \, connect 127.0.0.1 3011;
#X obj 331 528 loadbang;
#X obj 331 555 bng 15 250 50 0 empty empty empty 17 7 0 10 #fcfcfc #000000 #000000;
#X obj 93 187 r \$0-measure-data;
#X obj 121 242 spigot;
#X obj 121 267 print mlevel;
#X obj 157 213 tgl 15 0 empty empty empty 17 7 0 10 #fcfcfc #000000 #000000 0 1;
#X obj 95 16 netreceive -b -u 3010;
#X obj 85 592 netsend -b -u;
#N canvas 262 138 665 419 dsp-orgel-dispatch 0;
#X obj 17 23 inlet;
#X obj 17 99 route orgel01 orgel02 orgel03 orgel04 orgel05 orgel06 orgel07 orgel08 orgel09 orgel10, f 86;
#X obj 17 358 osc-modul;
#X obj 78 332 osc-modul;
#X obj 136 306 osc-modul;
#X obj 196 285 osc-modul;
#X obj 256 260 osc-modul;
#X obj 316 236 osc-modul;
#X obj 376 212 osc-modul;
#X obj 436 187 osc-modul;
#X obj 496 162 osc-modul;
#X obj 556 135 osc-modul;
#X connect 0 0 1 0;
#X connect 1 0 2 0;
#X connect 1 1 3 0;
#X connect 1 2 4 0;
#X connect 1 3 5 0;
#X connect 1 4 6 0;
#X connect 1 5 7 0;
#X connect 1 6 8 0;
#X connect 1 7 9 0;
#X connect 1 8 10 0;
#X connect 1 9 11 0;
#X restore 328 726 pd dsp-orgel-dispatch;
#X obj 121 356 t a a;
#X msg 410 641 list \$1;
#X obj 328 674 list prepend;
#X obj 328 699 list trim;
#X obj 587 611 textfile;
#X msg 587 524 read ./config/osc-setup.txt \, rewind \, bang;
#X obj 587 549 route bang;
#X obj 587 577 until;
#X obj 587 471 r \$0-osc-init;
#X obj 587 496 bng 20 250 50 0 empty empty empty 0 -10 0 12 #fcfcfc #000000 #000000;
#X obj 587 636 route #;
#N canvas 0 0 431 684 mlevel->vu 0;
#X obj 10 61 list split 1;
#X obj 50 124 route mlevel;
#X obj 50 93 list trim;
#X obj 85 34 t a a;
#X obj 120 61 list split 1;
#X obj 42 317 list prepend;
#X obj 42 381 pack s 0 0 \$0;
#X msg 42 353 \$1-vu \$2 \$3;
#X msg 42 408 \; \$4-\$1 \$2 \$3, f 17;
#X obj 42 226 unpack 0 0;
#X obj 42 282 pack 0 0;
#X obj 42 251 - 1;
#X obj 85 8 inlet;
#X obj 211 208 list prepend;
#X obj 214 134 list prepend mlevel;
#X obj 211 233 list trim;
#X obj 213 279 outlet;
#X connect 0 1 2 0;
#X connect 1 0 9 0;
#X connect 1 0 14 0;
#X connect 2 0 1 0;
#X connect 3 0 0 0;
#X connect 3 1 4 0;
#X connect 4 0 5 1;
#X connect 4 0 13 1;
#X connect 5 0 7 0;
#X connect 6 0 8 0;
#X connect 7 0 6 0;
#X connect 9 0 11 0;
#X connect 9 1 10 1;
#X connect 10 0 5 0;
#X connect 11 0 10 0;
#X connect 12 0 3 0;
#X connect 13 0 15 0;
#X connect 14 0 13 0;
#X connect 15 0 16 0;
#X restore 20 157 pd mlevel->vu;
#X obj 95 110 route preset-ctl;
#X obj 94 133 s \$0-preset-ctl;
#X text 361 554 Lisp Connection;
#X text 267 14 receive from Lisp;
#X text 487 726 Dispatch message to DSP patch PD instances of the organs;
#X text 649 581 setup of the osc ip and ports of the remote pd dsp patches.;
#X msg 177 82 preset-ctl preset-no 10;
#X msg 269 293 preset-ctl next-preset;
#X obj 185 879 print oscformat-out;
#X obj 560 257 print osc-in;
#X obj 366 170 print osc-from-lisp;
#X msg 544 75 orgel01 level 1 0.5;
#X obj 247 217 s \$0-ctlin;
#X obj 161 293 r \$0-ctl;
#X obj 414 507 oscformat;
#X obj 450 283 list split 2;
#X obj 450 339 list prepend set;
#X obj 450 364 list trim;
#X obj 453 454 list;
#X obj 453 479 list trim;
#X obj 471 401 t b a;
#X obj 450 312 t a a;
#X obj 35 227 bng 20 250 50 0 empty empty empty 0 -10 0 12 #fcfcfc #000000 #000000;
#X obj 257 112 bng 20 250 50 0 empty empty empty 0 -10 0 12 #fcfcfc #000000 #000000;
#X listbox 37 673 20 0 0 0 - - - 0;
#X connect 0 0 1 0;
#X connect 1 0 34 0;
#X connect 2 0 20 0;
#X connect 2 0 10 0;
#X connect 2 0 24 0;
#X connect 2 0 58 0;
#X connect 4 0 22 0;
#X connect 4 1 7 1;
#X connect 5 0 6 0;
#X connect 6 0 9 0;
#X connect 7 0 8 0;
#X connect 8 0 2 0;
#X connect 9 0 7 0;
#X connect 9 1 2 0;
#X connect 10 0 11 0;
#X connect 12 0 20 0;
#X connect 13 0 14 0;
#X connect 14 0 12 0;
#X connect 15 0 4 0;
#X connect 15 0 16 0;
#X connect 15 0 56 0;
#X connect 16 0 17 0;
#X connect 18 0 16 1;
#X connect 19 0 0 0;
#X connect 20 0 3 0;
#X connect 22 0 5 0;
#X connect 22 1 23 0;
#X connect 23 0 24 1;
#X connect 24 0 25 0;
#X connect 25 0 21 0;
#X connect 26 0 32 0;
#X connect 26 1 29 1;
#X connect 27 0 28 0;
#X connect 28 0 29 0;
#X connect 28 1 26 0;
#X connect 29 0 26 0;
#X connect 30 0 31 0;
#X connect 31 0 27 0;
#X connect 32 1 21 0;
#X connect 33 0 4 0;
#X connect 34 0 35 0;
#X connect 34 1 46 0;
#X connect 34 1 49 0;
#X connect 34 1 57 0;
#X connect 34 1 33 0;
#X connect 40 0 34 0;
#X connect 41 0 4 0;
#X connect 45 0 46 0;
#X connect 47 0 4 0;
#X connect 48 0 24 0;
#X connect 49 0 55 0;
#X connect 49 1 52 1;
#X connect 50 0 51 0;
#X connect 51 0 54 0;
#X connect 52 0 53 0;
#X connect 53 0 48 0;
#X connect 54 0 52 0;
#X connect 54 1 48 0;
#X connect 55 0 50 0;
#X connect 55 1 23 0;
#X restore 147 678 pd osc-handling;
#X obj 290 696 \$0;
#X floatatom 290 721 5 0 0 0 - - - 0;
#X obj 290 675 bng 15 250 50 0 empty empty empty 17 7 0 10 #fcfcfc #000000 #000000;
#X obj 923 5 orgelmodul \$0 orgel06 6;
#X obj 3 696 declare -path lib;
#N canvas 2774 117 976 562 init 0;
#X obj 200 168 s \$0-colors;
#X obj 17 24 loadbang;
#X obj 200 81 bng 15 250 50 0 empty empty empty 17 7 0 10 #fcfcfc #000000 #000000;
#X msg 200 103 333 959 995 599 779 595 977 888 888 888;
#X msg 200 129 0 \$1 \$2 \$2 \$3 \$2 \$4 \$3 \$5 \$2 \$6 \$4 \$7 \$3 \$8 \$5 \$9 \$2 \$2 \$2 \$3 \$2 \$4 \$3 \$5 \$2 \$6 \$4 \$7 \$3 \$8 \$5 \$9 \$2;
#X obj 469 259 \$0;
#X floatatom 469 283 5 0 0 0 - - - 0;
#X obj 473 234 bng 15 250 50 0 empty empty empty 17 7 0 10 #fcfcfc #000000 #000000;
#X obj 17 94 \$0;
#X obj 519 253 vsl 15 128 1 16 1 0 empty empty empty 0 -9 0 10 #fcfcfc #000000 #000000 0 1;
#X floatatom 525 393 5 0 0 0 - - - 0;
#X obj 518 193 loadbang;
#X msg 518 222 1;
#X obj 517 423 s \$0-gain;
#X obj 530 61 table \$0-colors 18;
#X obj 528 87 table \$0-vu-colors 18;
#X obj 17 49 t b b;
#X msg 17 125 \; \$1-vu-colors const 357 \; \$1-osc-init bang;
#X connect 1 0 16 0;
#X connect 2 0 3 0;
#X connect 3 0 4 0;
#X connect 4 0 0 0;
#X connect 5 0 6 0;
#X connect 7 0 5 0;
#X connect 8 0 17 0;
#X connect 9 0 10 0;
#X connect 10 0 13 0;
#X connect 11 0 12 0;
#X connect 12 0 9 0;
#X connect 16 0 8 0;
#X connect 16 1 2 0;
#X restore 3 721 pd init;
#X obj 187 5 orgelmodul \$0 orgel02 2;
#X obj 1291 5 orgelmodul \$0 orgel08 8;
#X obj 1107 5 orgelmodul \$0 orgel07 7;
#X obj 1475 5 orgelmodul \$0 orgel09 9;
#X obj 1659 5 orgelmodul \$0 orgel10 10;
#N canvas 0 687 450 300 main-master 0;
#X msg 25 106 1 \, 2 \, 3 \, 4 \, 5 \, 6 \, 7 \, 8 \, 9 \, 10;
#X obj 25 130 makefilename \$0-orgel%02d-main;
#X obj 25 154 pack s 0;
#X obj 25 228 send;
#X obj 25 82 t b f;
#X msg 25 178 \$2 \$1;
#X obj 25 203 unpack 0 s;
#X obj 25 46 inlet;
#X connect 0 0 1 0;
#X connect 1 0 2 0;
#X connect 2 0 5 0;
#X connect 4 0 0 0;
#X connect 4 1 2 1;
#X connect 5 0 6 0;
#X connect 6 0 3 0;
#X connect 6 1 3 1;
#X connect 7 0 4 0;
#X restore 1032 650 pd main-master;
#X obj 5 756 hsl 162 19 0 1 0 0 empty empty empty -2 -10 0 12 #fcfcfc #000000 #000000 0 1;
#X obj 352 675 preset-ctl \$0;
#X obj 70 625 r \$0-ctlin;
#X connect 1 0 2 0;
#X connect 2 0 0 0;
#X connect 4 0 1 0;
#X connect 9 0 10 0;
#X connect 11 0 9 0;
#X connect 21 0 20 0;
#X connect 23 0 1 0;
