#N canvas 0 2 507 464 12;
#N canvas 1241 35 638 922 calc-bias 1;
#X obj 27 3 inlet;
#X obj 29 171 f;
#X obj 29 84 t b b;
#X obj 29 109 until;
#X obj 91 160 sel 100;
#X msg 37 139 0;
#X obj 27 58 bng 15 250 50 0 empty empty empty 17 7 0 10 #fcfcfc #000000
#000000;
#X obj 153 489 pack 0 0;
#X obj 157 159 + 1;
#X obj 152 198 t f f;
#X obj 27 28 t b f;
#X obj 153 536 tabwrite \$0-array2;
#X obj 152 224 / 99;
#X msg 100 689 1.5708;
#X obj 159 689 print;
#X msg 365 331 3.14159;
#X obj 115 722 clip -1.5708 1.5708;
#X obj 153 335 clip -3.14159 3.14159;
#X obj 115 749 expr $f1 / 1.5708;
#X obj 152 249 expr ($f1*15)+1;
#X obj 152 307 expr ((($f1-$f2)/15))*23.58/$f3;
#X obj 320 407 clip 15 16;
#X floatatom 320 362 5 0 0 0 - - - 0;
#X floatatom 261 408 5 0 0 0 - - - 0;
#X obj 153 448 expr ((0.5+0.5*cos($f1))*(16-$f2))+($f2-15);
#X obj 338 6 inlet bw;
#X connect 0 0 10 0;
#X connect 1 0 4 0;
#X connect 2 0 3 0;
#X connect 2 1 5 0;
#X connect 3 0 1 0;
#X connect 4 0 3 1;
#X connect 4 1 8 0;
#X connect 4 1 9 0;
#X connect 5 0 1 1;
#X connect 6 0 2 0;
#X connect 7 0 11 0;
#X connect 8 0 1 1;
#X connect 9 0 12 0;
#X connect 9 1 7 1;
#X connect 10 0 6 0;
#X connect 10 1 20 1;
#X connect 12 0 19 0;
#X connect 17 0 24 0;
#X connect 19 0 20 0;
#X connect 20 0 17 0;
#X connect 21 0 23 0;
#X connect 21 0 24 1;
#X connect 22 0 21 0;
#X connect 24 0 7 0;
#X connect 25 0 20 2;
#X connect 25 0 22 0;
#X restore 86 414 pd calc-bias;
#N canvas 1322 737 450 250 (subpatch) 0;
#X array \$0-array2 100 float 1;
#A 0 0 0 0 0 0 0 0 0 0 0 0.00766894 0.0421503 0.102483 0.185261 0.28581
0.398452 0.516829 0.634255 0.744101 0.840164 0.91702 0.97033 0.997085
0.995772 0.966466 0.910823 0.831983 0.734399 0.623579 0.505782 0.387659
0.275879 0.176753 0.0958785 0.0378221 0.00586146 0 0 0 0 0 0 0 0 0
0 0 0 0 0 0 0 0 0 0 0 0 0 0 0 0 0 0 0 0 0 0 0 0 0 0 0 0 0 0 0 0 0 0
0 0 0 0 0 0 0 0 0 0 0 0 0 0 0 0 0 0 0 0 0;
#X coords 0 1 99 0 200 140 1 0 0;
#X restore 86 33 graph;
#X obj 89 177 hsl 195 15 1 16 0 0 empty empty bias -2 -8 0 10 #fcfcfc
#000000 #000000 0 1;
#X floatatom 86 197 5 0 0 0 - - - 0;
#X obj 327 42 vsl 15 128 1 16 0 0 empty empty bw 0 -9 0 10 #fcfcfc
#000000 #000000 0 1;
#X floatatom 329 176 5 0 0 0 - - - 0;
#X obj 134 373 t b b f;
#X connect 2 0 3 0;
#X connect 3 0 0 0;
#X connect 4 0 5 0;
#X connect 5 0 6 0;
#X connect 6 1 3 0;
