#N canvas 2407 414 515 548 12;
#X floatatom 33 159 15 0 0 0 - - - 0;
#X obj 33 7 inlet;
#X obj 33 183 outlet;
#X obj 33 69 n-scale \$2 \$3 \$4;
#X floatatom 33 98 5 0 0 0 - - - 0;
#X floatatom 33 32 5 0 0 0 - - - 0;
#X obj 33 124 expr $f1*(12/log(2)) * log((\$1+1)/(\$1));
#X connect 0 0 2 0;
#X connect 1 0 5 0;
#X connect 3 0 4 0;
#X connect 4 0 6 0;
#X connect 5 0 3 0;
#X connect 6 0 0 0;
