#N canvas 435 217 902 512 12;
#X floatatom 33 159 15 0 0 0 - - - 0;
#X obj 33 7 inlet;
#X obj 33 183 outlet;
#X obj 33 69 n-scale \$2 \$3 \$4;
#X floatatom 33 98 5 0 0 0 - - - 0;
#X floatatom 33 32 5 0 0 0 - - - 0;
#X obj 33 124 expr $f1*(12/log(2)) * log(($f2+1)/($f2));
#X obj 273 61 f \$1;
#X obj 270 22 loadbang;
#X floatatom 273 86 5 0 0 0 - - - 0;
#X obj 239 24 bng 20 250 50 0 empty empty empty 0 -10 0 12 #fcfcfc #000000 #000000;
#X connect 0 0 2 0;
#X connect 1 0 5 0;
#X connect 3 0 4 0;
#X connect 4 0 6 0;
#X connect 5 0 3 0;
#X connect 6 0 0 0;
#X connect 7 0 9 0;
#X connect 8 0 7 0;
#X connect 9 0 6 1;
#X connect 10 0 7 0;
