#N canvas 712 687 450 300 12;
#X floatatom 156 97 5 0 0 0 - - - 0;
#X obj 24 17 r \$1-ctl;
#X obj 24 42 route \$2;
#X msg 24 121 set \$1;
#X obj 24 92 f;
#X obj 209 96 symbol \$2;
#X obj 209 49 loadbang;
#X obj 209 74 bng 15 250 50 0 empty empty empty 17 7 0 10 #fcfcfc #000000
#000000;
#X obj 156 171 s \$1-ctl;
#X obj 155 121 pack 0 s s, f 18;
#X obj 281 95 symbol \$3;
#X obj 24 147 s \$1-\$2-\$3;
#X obj 24 67 route \$3;
#X msg 156 146 \$2 \$3 \$1;
#X obj 156 25 r \$1-\$2-\$3;
#X connect 0 0 9 0;
#X connect 1 0 2 0;
#X connect 2 0 12 0;
#X connect 3 0 11 0;
#X connect 4 0 3 0;
#X connect 5 0 9 1;
#X connect 6 0 7 0;
#X connect 7 0 5 0;
#X connect 7 0 10 0;
#X connect 9 0 13 0;
#X connect 10 0 9 2;
#X connect 12 0 4 0;
#X connect 13 0 8 0;
#X connect 14 0 0 0;
