#N canvas 687 80 645 477 12;
#X obj 254 186 leveler~ 140 140;
#X obj 105 285 dac~ 1;
#X obj 266 132 unpack 0 0 0 0 0;
#X msg 273 100 400 400 0 1 0.5;
#X obj 102 134 *~ 1;
#X obj 98 106 sig~ 0;
#X obj 20 17 vsl 15 128 -2 2 0 0 empty empty empty 0 -9 0 10 #fcfcfc
#000000 #000000 0 1;
#X floatatom 20 153 5 0 0 0 - - - 0;
#X msg 98 45 0;
#X msg 252 38 400 400 -1 0 0.5;
#X obj 410 256 scale~ 0 1 1 0 0.1, f 20;
#X obj 438 179 unpack 0 0 0 0 0;
#X obj 402 337 snapshot~;
#X floatatom 402 362 10 0 0 0 - - - 0;
#X obj 457 302 metro 50;
#X obj 456 281 tgl 15 0 empty empty empty 17 7 0 10 #fcfcfc #000000
#000000 0 1;
#X msg 158 45 1;
#X msg 156 82 0.5;
#X msg 164 15 10;
#X msg 108 12 -1;
#X msg 438 156 -1 1 1 0 0.5;
#X obj 50 328 phasor~ 1;
#X obj 89 371 slide~ 44100 44100;
#X obj 35 415 dac~ 5 6 7 8;
#X floatatom 185 292 5 0 0 0 - - - 0;
#X msg 185 267 44100;
#X connect 2 0 0 1;
#X connect 2 1 0 2;
#X connect 2 2 0 3;
#X connect 2 3 0 4;
#X connect 2 4 0 5;
#X connect 3 0 2 0;
#X connect 4 0 10 0;
#X connect 5 0 4 0;
#X connect 6 0 7 0;
#X connect 7 0 5 0;
#X connect 8 0 6 0;
#X connect 9 0 2 0;
#X connect 10 0 12 0;
#X connect 11 0 10 1;
#X connect 11 1 10 2;
#X connect 11 2 10 3;
#X connect 11 3 10 4;
#X connect 11 4 10 5;
#X connect 12 0 13 0;
#X connect 14 0 12 0;
#X connect 15 0 14 0;
#X connect 16 0 6 0;
#X connect 17 0 6 0;
#X connect 18 0 6 0;
#X connect 19 0 6 0;
#X connect 20 0 11 0;
#X connect 21 0 22 0;
#X connect 21 0 23 0;
#X connect 22 0 23 1;
#X connect 24 0 22 1;
#X connect 24 0 22 2;
#X connect 25 0 24 0;
