#N canvas 40 668 1185 513 12;
#X obj 145 65 abs~;
#X obj 145 175 scale~ 0 1 1 0 0.1, f 88;
#X obj 129 32 inlet~;
#X obj 128 308 outlet~;
#X obj 145 251 slide~ \$1 \$2, f 29;
#X obj 244 33 inlet ramp-up;
#X obj 345 33 inlet ramp-down;
#X obj 523 33 inlet min-amp;
#X obj 630 33 inlet max-amp;
#X obj 758 33 inlet exp-base;
#X obj 145 220 clip~ 0 1;
#X floatatom 345 92 5 0 0 0 - - - 0;
#X floatatom 244 89 5 0 0 0 - - - 0;
#X obj 128 283 *~;
#X obj 345 65 route set;
#X obj 244 61 route set;
#X floatatom 532 87 5 0 0 0 - - - 0;
#X obj 532 59 route set;
#X floatatom 642 86 5 0 0 0 - - - 0;
#X obj 642 58 route set;
#X floatatom 758 92 5 0 0 0 - - - 0;
#X obj 758 64 route set;
#X obj 531 278 metro 50;
#X obj 531 303 snapshot~;
#X floatatom 531 328 5 0 0 0 - - - 0;
#X obj 528 242 tgl 15 0 empty empty empty 17 7 0 10 #fcfcfc #000000 #000000 0 1;
#X obj 681 295 snapshot~;
#X floatatom 681 320 5 0 0 0 - - - 0;
#X obj 953 87 samplerate~;
#X obj 902 31 inlet base-freq;
#X floatatom 902 60 5 0 0 0 - - - 0;
#X obj 953 62 loadbang;
#X obj 902 130 expr $f2/$f1;
#X floatatom 902 153 5 0 0 0 - - - 0;
#X text 947 154 Periodendauer in Samplen;
#X obj 902 175 * 0.0625;
#X floatatom 902 198 5 0 0 0 - - - 0;
#X connect 0 0 1 0;
#X connect 1 0 10 0;
#X connect 1 0 23 0;
#X connect 2 0 0 0;
#X connect 2 0 13 0;
#X connect 4 0 13 1;
#X connect 5 0 15 0;
#X connect 6 0 14 0;
#X connect 7 0 17 0;
#X connect 8 0 19 0;
#X connect 9 0 21 0;
#X connect 10 0 4 0;
#X connect 11 0 4 2;
#X connect 12 0 4 1;
#X connect 13 0 3 0;
#X connect 14 0 11 0;
#X connect 14 1 11 0;
#X connect 15 0 12 0;
#X connect 15 1 12 0;
#X connect 16 0 1 4;
#X connect 17 0 16 0;
#X connect 17 1 16 0;
#X connect 18 0 10 2;
#X connect 18 0 1 3;
#X connect 19 0 18 0;
#X connect 19 1 18 0;
#X connect 20 0 1 5;
#X connect 21 0 20 0;
#X connect 21 1 20 0;
#X connect 22 0 23 0;
#X connect 23 0 24 0;
#X connect 25 0 22 0;
#X connect 26 0 27 0;
#X connect 28 0 32 1;
#X connect 29 0 30 0;
#X connect 30 0 32 0;
#X connect 31 0 28 0;
#X connect 32 0 33 0;
#X connect 33 0 35 0;
#X connect 35 0 36 0;
