#N canvas 2433 80 1226 825 12;
#X obj 38 23 inlet~;
#X obj 38 208 outlet~;
#X obj 137 24 inlet ramp-up;
#X obj 237 24 inlet ramp-down;
#X obj 416 24 inlet min-amp;
#X obj 523 24 inlet max-amp;
#X obj 651 24 inlet exp-base;
#X floatatom 672 81 5 0 0 0 - - - 0;
#X floatatom 536 82 5 0 0 0 - - - 0;
#X floatatom 385 81 5 0 0 0 - - - 0;
#X floatatom 263 77 5 0 0 0 - - - 0;
#X floatatom 150 74 5 0 0 0 - - - 0;
#X obj 610 476 samplerate~;
#X obj 610 455 bng 15 250 50 0 empty empty empty 17 7 0 10 #fcfcfc
#000000 #000000;
#X obj 610 501 / 25;
#X floatatom 610 526 5 0 0 0 - - - 0;
#X obj 406 351 f;
#X obj 446 353 f;
#X obj 418 409 sel 0 1;
#X obj 303 472 pack 0 0;
#X obj 441 199 expr 200-$f1;
#X obj 326 294 t f f b;
#X obj 345 448 f;
#X obj 418 384 <;
#X obj 397 447 f;
#X obj 303 500 line~;
#X obj 683 178 abs~;
#X obj 683 228 scale~ 0 1 1 0 0.1, f 88;
#X obj 683 304 slide~ \$1 \$2, f 29;
#X obj 683 273 clip~ 0 1;
#X obj 48 153 *~;
#X obj 441 224 dbtorms;
#X floatatom 512 300 5 0 0 0 - - - 0;
#X obj 441 249 clip 0 400;
#X obj 441 174 env~ 128;
#X connect 0 0 30 0;
#X connect 0 0 34 0;
#X connect 2 0 11 0;
#X connect 3 0 10 0;
#X connect 4 0 9 0;
#X connect 5 0 8 0;
#X connect 6 0 7 0;
#X connect 10 0 24 1;
#X connect 11 0 22 1;
#X connect 12 0 14 0;
#X connect 13 0 12 0;
#X connect 14 0 15 0;
#X connect 16 0 17 1;
#X connect 16 0 23 0;
#X connect 17 0 23 1;
#X connect 18 0 22 0;
#X connect 18 1 24 0;
#X connect 19 0 25 0;
#X connect 20 0 31 0;
#X connect 21 0 19 0;
#X connect 21 1 16 0;
#X connect 21 2 17 0;
#X connect 22 0 19 1;
#X connect 23 0 18 0;
#X connect 24 0 19 1;
#X connect 25 0 30 1;
#X connect 26 0 27 0;
#X connect 27 0 29 0;
#X connect 29 0 28 0;
#X connect 30 0 1 0;
#X connect 31 0 33 0;
#X connect 33 0 32 0;
#X connect 33 0 21 0;
#X connect 34 0 20 0;
