#N canvas 2200 2 1482 926 12;
#X obj 232 18 loadbang;
#X floatatom 466 329 5 0 0 0 - - - 0;
#X floatatom 162 384 10 0 0 0 - - - 0;
#X obj 90 516 spigot;
#X obj 129 484 == 0;
#X obj 215 570 spigot;
#X obj 201 483 > 0;
#X obj 254 484 < 0;
#X obj 162 408 t f f, f 6;
#X obj 162 571 spigot;
#X obj 232 44 bng 15 250 50 0 empty empty empty 17 7 0 10 #fcfcfc #000000
#000000;
#X msg 85 335 0.1;
#X obj 466 304 - \$3;
#X obj 90 544 bng 15 250 50 0 empty empty empty 17 7 0 10 #fcfcfc #000000
#000000;
#X obj 160 329 inlet;
#X text 507 306 out_high - out_low;
#X text 298 358 (x - in_low) / (in_high - in_low);
#X obj 162 673 outlet;
#X text 11 570 out_low;
#X text 12 547 case 1:;
#X text 408 627 case 2:;
#X text 521 600 case 3:;
#X obj 531 19 inlet out_low;
#X obj 635 19 inlet out_high;
#X obj 749 18 inlet curvature;
#X obj 749 107 sel 0;
#X msg 749 132 1;
#X floatatom 749 157 5 0 0 0 - - - 0;
#X obj 162 626 expr $f3 + ($f2 * pow($f1 \, $f4));
#X obj 513 175 t b f;
#X obj 215 598 expr $f3 + (-1 * $f2 * pow($f1 * -1 \, $f4));
#X text 290 485 3 cases;
#X floatatom 466 274 5 0 0 0 - - - 0;
#X floatatom 513 152 5 0 0 0 - - - 0;
#X obj 160 357 expr ($f1-\\\$1)/127;
#X obj 513 75 f \$1;
#X obj 90 568 f \$1;
#X obj 749 82 f \$3;
#X obj 466 199 f \$2;
#X connect 0 0 10 0;
#X connect 1 0 28 1;
#X connect 1 0 30 1;
#X connect 2 0 8 0;
#X connect 3 0 13 0;
#X connect 4 0 3 1;
#X connect 5 0 30 0;
#X connect 6 0 9 1;
#X connect 7 0 5 1;
#X connect 8 0 3 0;
#X connect 8 0 5 0;
#X connect 8 0 9 0;
#X connect 8 1 7 0;
#X connect 8 1 6 0;
#X connect 8 1 4 0;
#X connect 9 0 28 0;
#X connect 10 0 35 0;
#X connect 10 0 37 0;
#X connect 10 0 38 0;
#X connect 11 0 34 0;
#X connect 12 0 1 0;
#X connect 13 0 36 0;
#X connect 14 0 34 0;
#X connect 22 0 35 0;
#X connect 23 0 38 0;
#X connect 24 0 37 0;
#X connect 25 0 26 0;
#X connect 25 1 27 0;
#X connect 26 0 27 0;
#X connect 27 0 30 3;
#X connect 27 0 28 3;
#X connect 28 0 17 0;
#X connect 29 0 38 0;
#X connect 29 1 12 1;
#X connect 29 1 30 2;
#X connect 29 1 28 2;
#X connect 29 1 36 1;
#X connect 30 0 17 0;
#X connect 32 0 12 0;
#X connect 33 0 29 0;
#X connect 34 0 2 0;
#X connect 35 0 33 0;
#X connect 36 0 17 0;
#X connect 37 0 25 0;
#X connect 38 0 32 0;
