#N struct 10489-rectangle float x float c;
#N struct 10489-pixel float x0 float y0;
#N struct 10489-slider float x float y float w float h float c;
#N canvas 2034 24 1438 936 10;
#X obj 522 477 t b f;
#X obj 522 500 del;
#X obj 562 500 s \$0-y;
#X obj 617 500 s \$0-x;
#N canvas 775 335 470 178 \$0-rectangle 0;
#X obj 44 93 s \$0-rectangle;
#X obj 44 116 filledpolygon c 0 0 0 0 1 0 1 1 0 1;
#X obj 44 70 struct \$0-rectangle float x float c;
#X text 42 34 This is a one pixel polygon that will be stretched to
the size of the area;
#X connect 2 0 0 0;
#X restore 480 86 pd \$0-rectangle;
#N canvas 672 290 336 162 \$0-pixel 0;
#X obj 44 73 s \$0-pixel;
#X obj 44 50 struct \$0-pixel float x0 float y0;
#X obj 44 96 drawpolygon 0 0 0 0 x0 y0;
#X connect 1 0 0 0;
#X restore 480 63 pd \$0-pixel;
#X obj 659 523 r \$0-pixelPointer;
#X obj 480 385 r \$0-rectangle;
#X obj 480 408 t b b;
#X obj 554 523 + 2;
#X obj 606 523 + 2;
#X obj 93 109 s pd-\$0-pixelSubpatch;
#X obj 83 132 s pd-\$0-rectangleSubpatch;
#X obj 230 8 bng 15 250 50 0 empty \$0-reset reset 17 7 0 10 #fcfcfc
#000000 #000000;
#X msg 507 753 const 0;
#X obj 507 454 sel;
#X obj 507 661 del;
#X obj 547 661 s \$0-y;
#X obj 603 661 s \$0-x;
#X obj 644 684 r \$0-pixelPointer;
#X obj 539 684 + 2;
#X obj 591 684 + 2;
#X obj 507 638 t b f;
#X msg 507 615 0;
#X obj 480 40 namecanvas \$0-this;
#X obj 61 1351 s \$0-this;
#X obj 61 1075 pack;
#X obj 91 1121 s pd-\$0-pixelSubpatch;
#X obj 91 1167 s pd-\$0-rectangleSubpatch;
#X obj 612 155 r \$0-rectanglePointer;
#X obj 34 730 t b b;
#X obj 34 1650 s \$0-this;
#X msg 34 1627 dirty 0;
#X obj 61 753 \$0;
#X obj 74 155 s pd-\$0-tablesSubpatch;
#X msg 61 1512 const 0;
#X msg 91 1098 donecanvasdialog 1 -1 2 0 \$2 \$1 0 \$1 \$2 0 0;
#X msg 81 1236 donecanvasdialog 1 -1 2 0 \$2 \$1 0 \$1 \$2 0 0;
#X msg 71 1282 donecanvasdialog 1 -1 2 0 0 \$1 \$2 \$1 \$2 0 0;
#X obj 61 822 s pd-\$0-tablesSubpatch;
#X obj 61 776 t f f;
#X msg 91 1190 donecanvasdialog 1 -1 2 0 \$2 \$1 0 \$1 \$2 100 20;
#X obj 91 1213 s pd-\$0-tablesSubpatch;
#X msg 91 1144 donecanvasdialog 1 -1 2 0 0 1 1 \$1 \$2 0 0;
#X obj 507 178 set \$0-rectangle c;
#X obj 34 40 loadbang;
#X obj 53 569 s \$0-pixelPointer;
#X msg 176 500 traverse \$1 \, bang;
#X obj 176 523 pointer;
#X obj 176 477 symbol pd-\$0-pixelSubpatch;
#X msg 188 638 traverse \$1 \, bang;
#X obj 188 661 pointer;
#X obj 188 615 symbol pd-\$0-rectangleSubpatch;
#X obj 53 684 append \$0-rectangle x c;
#X obj 53 707 s \$0-rectanglePointer;
#X obj 76 1374 r \$0-width;
#X obj 34 845 t b b;
#X obj 34 1489 t b b;
#X obj 34 1374 t b b;
#X obj 61 1397 f;
#X obj 53 247 \$1;
#X obj 124 247 \$2;
#X obj 53 270 s \$0-width;
#X obj 124 270 s \$0-height;
#X obj 61 1052 f;
#X obj 76 1029 r \$0-width;
#X obj 91 1052 r \$0-height;
#X obj 34 1029 t b b;
#X obj 34 224 t b b b;
#X obj 34 339 spigot;
#X obj 67 293 >;
#X obj 95 293 >;
#X obj 67 316 *;
#X msg 61 385 1;
#X msg 188 385 2;
#X obj 34 362 t b b;
#X obj 61 431 s \$0-arrayName1;
#X obj 188 431 s \$0-arrayName2;
#X obj 558 408 r \$0-arrayName1;
#X obj 567 569 r \$0-arrayName2;
#X msg 61 799 graph \$1-graph1;
#X msg 169 799 graph \$1-graph2;
#X obj 71 914 s pd-\$0-graph1;
#X obj 61 1006 s pd-\$0-graph2;
#X obj 507 431 array max;
#X obj 507 592 array max;
#X obj 532 776 r \$0-arrayName1;
#X obj 522 822 r \$0-arrayName2;
#X obj 517 799 s;
#X obj 507 845 s;
#X obj 104 845 r \$0-arrayName1;
#X obj 94 937 r \$0-arrayName2;
#X obj 71 1558 s;
#X obj 61 1604 s;
#X obj 86 1535 r \$0-arrayName1;
#X obj 76 1581 r \$0-arrayName2;
#X obj 128 1397 r \$0-arrayName1;
#X obj 118 1443 r \$0-arrayName2;
#X obj 71 1420 array size;
#X obj 61 1466 array size;
#X obj 34 454 t b b b;
#X obj 34 592 t b b b;
#X msg 71 891 pop \, array \$1 0 float 1;
#X msg 61 983 pop \, array \$1 0 float 1;
#X obj 61 960 symbol;
#X obj 71 868 symbol;
#X obj 81 1259 s pd-\$0-graph1;
#X obj 71 1305 s pd-\$0-graph2;
#X msg 522 523 1 0;
#X msg 507 684 1 0;
#X obj 480 1006 sel change;
#X obj 480 1029 pointer;
#X obj 507 1098 - 2;
#X obj 612 1098 - 2;
#X obj 480 983 unpack s p f, f 13;
#X obj 480 960 r \$0-pixel;
#X obj 612 1213 r \$0-pixelPointer;
#X obj 480 1052 t b p;
#X msg 507 1213 1 0;
#X obj 507 1121 sel -1;
#X obj 507 1144 f;
#X obj 513 1581 r \$0-height;
#X obj 676 1581 r \$0-width;
#X obj 612 1144 f;
#X obj 612 1121 sel -2;
#X obj 559 1121 r \$0-y;
#X obj 664 1121 r \$0-x;
#X obj 507 293 unpack f f f;
#X obj 507 316 s \$0-setWidth;
#X obj 598 316 s \$0-setHeight;
#X obj 480 270 t b l;
#X obj 480 339 s \$0-reset;
#X obj 480 155 t f f;
#X obj 480 201 s \$0-color;
#X obj 110 638 r \$0-color;
#X obj 53 661 pack 0 999;
#N canvas 347 175 378 435 uniqueInvisible 0;
#X obj 99 200 t b f;
#X obj 99 246 list split;
#X obj 99 292 list;
#X obj 99 269 list split 1;
#X obj 51 200 sel;
#X obj 99 315 t l;
#X obj 51 338 list;
#X obj 51 154 t f f;
#X obj 51 131 t f b;
#X obj 51 177 div 2;
#X obj 99 177 mod 2;
#X msg 99 223 32 160;
#X obj 51 361 list tosymbol;
#X obj 51 384 outlet;
#X obj 51 85 inlet;
#X obj 51 108 expr \$0 * 1000 + $f1;
#X text 47 45 Generate a unique invisible name from a number;
#X connect 0 0 11 0;
#X connect 0 1 1 1;
#X connect 1 1 3 0;
#X connect 2 0 5 0;
#X connect 3 0 2 0;
#X connect 4 0 6 0;
#X connect 4 1 7 0;
#X connect 5 0 2 1;
#X connect 5 0 6 1;
#X connect 6 0 12 0;
#X connect 7 0 9 0;
#X connect 7 1 10 0;
#X connect 8 0 7 0;
#X connect 8 1 2 1;
#X connect 9 0 4 0;
#X connect 10 0 0 0;
#X connect 11 0 1 0;
#X connect 12 0 13 0;
#X connect 14 0 15 0;
#X connect 15 0 8 0;
#X restore 61 408 pd uniqueInvisible;
#N canvas 347 175 378 435 uniqueInvisible 0;
#X obj 99 200 t b f;
#X obj 99 246 list split;
#X obj 99 292 list;
#X obj 99 269 list split 1;
#X obj 51 200 sel;
#X obj 99 315 t l;
#X obj 51 338 list;
#X obj 51 154 t f f;
#X obj 51 131 t f b;
#X obj 51 177 div 2;
#X obj 99 177 mod 2;
#X msg 99 223 32 160;
#X obj 51 361 list tosymbol;
#X obj 51 384 outlet;
#X obj 51 85 inlet;
#X obj 51 108 expr \$0 * 1000 + $f1;
#X text 47 45 Generate a unique invisible name from a number;
#X connect 0 0 11 0;
#X connect 0 1 1 1;
#X connect 1 1 3 0;
#X connect 2 0 5 0;
#X connect 3 0 2 0;
#X connect 4 0 6 0;
#X connect 4 1 7 0;
#X connect 5 0 2 1;
#X connect 5 0 6 1;
#X connect 6 0 12 0;
#X connect 7 0 9 0;
#X connect 7 1 10 0;
#X connect 8 0 7 0;
#X connect 8 1 2 1;
#X connect 9 0 4 0;
#X connect 10 0 0 0;
#X connect 11 0 1 0;
#X connect 12 0 13 0;
#X connect 14 0 15 0;
#X connect 15 0 8 0;
#X restore 188 408 pd uniqueInvisible;
#X floatatom 425 78 5 0 0 1 color \$0-noreceive - 0;
#X msg 600 247 300 200 1;
#X msg 669 247 300 200 2;
#X msg 531 247 300 200 0;
#X obj 561 1328 r \$0-mode;
#X obj 724 1328 r \$0-mode;
#X obj 480 1374 route 0 1 2;
#X obj 643 1374 route 0 1 2;
#X obj 664 1420 t f f;
#X obj 501 1466 t f f;
#X obj 741 1466 r \$0-height;
#X obj 904 1420 r \$0-width;
#X obj 528 1512 *;
#X obj 528 1489 expr if($f1 >= 0 && $f1 < $f2 \, 1 \, 0);
#X obj 691 1443 expr if($f1 >= 0 && $f1 < $f2 \, 1 \, 0);
#X obj 507 1167 s \$0-y;
#X obj 612 1167 s \$0-x;
#X obj 480 1328 r \$0-y;
#X obj 643 1328 r \$0-x;
#X obj 522 1397 s \$0-yOut;
#X obj 685 1397 s \$0-xOut;
#X obj 664 1466 s \$0-xOut;
#X obj 501 1558 s \$0-yOut;
#X obj 480 1650 s \$0-yOut;
#X obj 643 1650 s \$0-xOut;
#X obj 635 1696 r \$0-yOut;
#X obj 561 1696 r \$0-xOut;
#X floatatom 992 610 5 0 0 0 - - - 0;
#X floatatom 1031 610 5 0 0 0 - - - 0;
#X obj 923 564 r \$0-out;
#X obj 923 587 unpack s f f;
#X obj 480 1190 t b b;
#X obj 480 1282 s \$0-event;
#X obj 480 730 t b b;
#X symbolatom 923 610 10 0 0 0 - - - 0;
#X obj 480 914 s \$0-event;
#X obj 480 1696 r \$0-event;
#X msg 480 891 click;
#X msg 480 1259 motion;
#X obj 480 1719 pack s f f;
#X obj 480 1742 list trim;
#X obj 480 1627 clip 0;
#X obj 643 1627 clip 0;
#X obj 513 1604 - 1;
#X obj 676 1604 - 1;
#X obj 528 1535 s \$0-gate;
#X obj 480 868 t b b;
#X msg 554 891 1;
#X obj 554 914 s \$0-gate;
#X obj 916 879 outlet;
#X obj 533 1788 s \$0-out;
#X obj 480 1765 spigot;
#X obj 555 1742 r \$0-gate;
#X obj 53 201 s \$0-this;
#X msg 73 86 clear \, donecanvasdialog 1 -1 0 0 0 0 0 0 0 0 0;
#X msg 53 178 donecanvasdialog 1 -1 0 0 0 0 0 0 0 0 0 \, dirty 0;
#X obj 480 1351 list prepend 0;
#X obj 643 1351 list prepend 0;
#X obj 34 63 t b b b;
#X text 98 64 Clear everything and disable GOP for now;
#X text 86 362 Generate unique invisible names for the arrays;
#X text 102 455 Create pixel;
#X text 105 592 Create rectangle;
#X text 87 732 Create graphs;
#X text 154 1030 Activate GOP on everything;
#X text 151 1375 Set array sizes;
#X text 84 1491 Set array values to zero;
#X text 102 1627 Protect from save dialog;
#X text 590 385 Get click from rectangle;
#X text 582 432 Get x and y from array 1;
#X text 583 593 If y is zero get x from array 2;
#X text 677 708 Set pixel;
#X text 571 752 Reset arrays to zero;
#X text 669 500 Send x and y;
#X text 654 662 Send x and y;
#X text 557 1007 Get change event from pixel;
#X text 633 1075 Get x and y from pixel;
#X text 646 1099 Undo shift;
#X text 680 546 Set pixel two pixels away to get the grab;
#X text 683 566 and reset afterwards to corner;
#X text 665 1167 Send x and y;
#X text 636 1236 Reset pixel to corner;
#X text 535 1260 Send motion event;
#X text 528 868 Open gate and send click event;
#X text 753 1351 Prepend mode;
#X text 730 1375 Route mode;
#X text 757 1397 Mode 2: Direct output;
#X text 600 1536 Mode 1: Only when inside the area \, otherwise close
gate;
#X text 696 1627 Mode 0: Clip values to zero/max;
#X text 89 340 Only proceed if area size is at least one square;
#X text 257 886 so nothing to draw;
#X text 121 868 Insert arrays into the graphs with zero size \,;
#X msg 61 1328 donecanvasdialog 1 -1 2 0 \$2 \$1 0 \$1 \$2 900 150
;
#X text 899 130 pixelSubpatch \, rectangleSubpatch \, tablesSubpatch
;
#X obj 177 224 r \$0-setHeight;
#X obj 87 224 r \$0-setWidth;
#X msg 738 247 0 0;
#X obj 202 270 s \$0-mode;
#X obj 202 247 \$3;
#X text 149 202 Get mode and dimensions;
#N canvas 80 95 1192 433 \$0-tablesSubpatch 0;
#N canvas 0 50 450 250 (subpatch) 0;
#X array  \  \ \ \ \ \ \ \ \ \   \ \  \  \  \  \  240 float 1;
#A 0 0 0 0 0 0 0 0 0 0 0 0 0 0 0 0 0 0 0 0 0 0 0 0 0 0 0 0 0 0 0 0
0 0 0 0 0 0 0 0 0 0 0 0 0 0 0 0 0 0 0 0 0 0 0 0 0 0 0 0 0 0 0 0 0 0
0 0 0 0 0 0 0 0 0 0 0 0 0 0 0 0 0 0 0 0 0 0 0 0 0 0 0 0 0 0 0 0 0 0
0 0 0 0 0 0 0 0 0 0 0 0 0 0 0 0 0 0 0 0 0 0 0 0 0 0 0 0 0 0 0 0 0 0
0 0 0 0 0 0 0 0 0 0 0 0 0 0 0 0 0 0 0 0 0 0 0 0 0 0 0 0 0 0 0 0 0 0
0 0 0 0 0 0 0 0 0 0 0 0 0 0 0 0 0 0 0 0 0 0 0 0 0 0 0 0 0 0 0 0 0 0
0 0 0 0 0 0 0 0 0 0 0 0 0 0 0 0 0 0 0 0 0 0 0 0 0 0 0 0 0 0 0 0 0 0
0 0 0 0 0;
#X coords 0 0 239 132 240 132 2 0 0;
#X restore 100 20 graph;
#N canvas 0 50 450 250 (subpatch) 0;
#X array  \  \ \ \ \ \ \ \ \ \   \ \  \  \  \ \   240 float 1;
#A 0 0 0 0 0 0 0 0 0 0 0 0 0 0 0 0 0 0 0 0 0 0 0 0 0 0 0 0 0 0 0 0
0 0 0 0 0 0 0 0 0 0 0 0 0 0 0 0 0 0 0 0 0 0 0 0 0 0 0 0 0 0 0 0 0 0
0 0 0 0 0 0 0 0 0 0 0 0 0 0 0 0 0 0 0 0 0 0 0 0 0 0 0 0 0 0 0 0 0 0
0 0 0 0 0 0 0 0 0 0 0 0 0 0 0 0 0 0 0 0 0 0 0 0 0 0 0 0 0 0 0 0 0 0
0 0 0 0 0 0 0 0 0 0 0 0 0 0 0 0 0 0 0 0 0 0 0 0 0 0 0 0 0 0 0 0 0 0
0 0 0 0 0 0 0 0 0 0 0 0 0 0 0 0 0 0 0 0 0 0 0 0 0 0 0 0 0 0 0 0 0 0
0 0 0 0 0 0 0 0 0 0 0 0 0 0 0 0 0 0 0 0 0 0 0 0 0 0 0 0 0 0 0 0 0 0
0 0 0 0 0;
#X coords 0 132 239 0 240 132 2 0 0;
#X restore 100 20 graph;
#X coords 0 132 240 0 240 132 2 100 20;
#X restore 900 150 pd \$0-tablesSubpatch;
#N canvas 3 51 450 300 \$0-rectangleSubpatch 0;
#X scalar 10489-rectangle 0 333 \;;
#X coords 0 0 1 1 240 132 2 0 0;
#X restore 900 150 pd \$0-rectangleSubpatch;
#N canvas 3 51 450 300 \$0-pixelSubpatch 0;
#X scalar 10489-pixel 0 1 \;;
#X coords 0 132 240 0 240 132 2 0 0;
#X restore 900 150 pd \$0-pixelSubpatch;
#X obj 696 316 s \$0-setMode;
#X obj 273 224 r \$0-setMode;
#X obj 554 546 set \$0-pixel y0 x0;
#X obj 539 707 set \$0-pixel y0 x0;
#X obj 507 1075 get \$0-pixel y0 x0;
#X obj 507 1236 set \$0-pixel y0 x0;
#X obj 53 546 append \$0-pixel x0 y0;
#X msg 53 523 0 0;
#N canvas 932 83 920 859 \$0-msl-subpatch 0;
#X scalar 10489-slider 0 0 15 81 959 \;;
#X scalar 10489-slider 15 0 15 81 959 \;;
#X scalar 10489-slider 30 0 15 81 995 \;;
#X scalar 10489-slider 45 0 15 81 959 \;;
#X scalar 10489-slider 60 0 15 81 599 \;;
#X scalar 10489-slider 75 0 15 71 995 \;;
#X scalar 10489-slider 90 0 15 52 779 \;;
#X scalar 10489-slider 105 0 15 38 959 \;;
#X scalar 10489-slider 120 0 15 0 595 \;;
#X scalar 10489-slider 135 0 15 0.574803 599 \;;
#X scalar 10489-slider 150 0 15 0.377953 977 \;;
#X scalar 10489-slider 165 0 15 0.299213 995 \;;
#X scalar 10489-slider 180 0 15 0.110236 888 \;;
#X scalar 10489-slider 195 0 15 1.0315 779 \;;
#X scalar 10489-slider 210 0 15 0.440945 888 \;;
#X scalar 10489-slider 225 0 15 1.0315 888 \;;
#X coords 0 132 240 0 240 132 2 0 0;
#X restore 900 150 pd \$0-msl-subpatch;
#X obj 236 110 s pd-\$0-msl-Subpatch;
#N canvas 775 335 470 178 \$0-slider 0;
#X text 42 34 This is a one pixel polygon that will be stretched to
the size of the area;
#X obj 45 98 s \$0-slider;
#X obj 45 121 filledpolygon c 0 0 0 0 w 0 w h 0 h;
#X obj 45 71 struct \$0-slider float x float y float w float h float
c;
#X connect 3 0 1 0;
#X restore 479 111 pd \$0-slider;
#N canvas 549 301 831 632 msl-init 0;
#X obj 95 7 loadbang;
#X obj 95 30 bng 15 250 50 0 empty empty empty 17 7 0 10 #fcfcfc #000000
#000000;
#X obj 122 106 f \$1;
#X obj 278 464 symbol pd-\$0-msl-subpatch;
#X msg 279 487 traverse \$1 \, bang;
#X obj 105 548 append \$0-slider x y w h c;
#X obj 279 510 pointer;
#X obj 278 487;
#X obj 305 437 s pd-\$0-msl-subpatch;
#X msg 305 412 clear;
#X floatatom 122 153 5 0 0 0 - - - 0;
#X obj 100 213 f \$3;
#X obj 100 236 t b b f;
#X obj 102 287 until;
#X obj 102 310 f;
#X msg 119 258 0;
#X obj 155 331 + 1;
#X obj 90 192 bng 15 250 50 0 empty empty empty 17 7 0 10 #fcfcfc #000000
#000000;
#X obj 137 417 t f f;
#X obj 164 445 *;
#X obj 122 175 t b f b;
#X obj 278 364 t b b;
#X obj 122 129 / \$4;
#X obj 102 333 sel \$4;
#X obj 137 470 pack 0 0 0 0;
#X msg 105 521 \$2 0 \$3 0 \$4;
#X obj 206 445 tabread \$6;
#X floatatom 231 470 5 0 0 0 - - - 0;
#X floatatom 211 406 5 0 0 0 - - - 0;
#N canvas 673 251 829 767 rcv-factory 0;
#X obj 208 626 symbol pd-\$0-msl-subpatch;
#X obj 207 594 bng 15 250 50 0 empty empty empty 17 7 0 10 #fcfcfc
#000000 #000000;
#X obj 208 672 pointer;
#X obj 28 428 until;
#X obj 28 451 f;
#X obj 28 474 sel;
#X obj 75 464 + 1;
#X msg 47 405 0;
#X obj 43 497 pack 0 \$0;
#X obj 28 381 t b b f b;
#X msg 208 649 traverse \$1;
#X obj 43 520 t a b;
#X msg 70 546 next;
#X msg 45 579 send \$2-vsl-pointer-\$1;
#X obj 390 212 t f;
#X msg 543 579 clear;
#X obj 390 235 expr $f1 \; $f1*100+50 \; $f1*100+137 \; $f1*25+50 \;
$f1*25+75 \; $f1*25+100 \; $f1*4 \; $f1*4+1 \; $f1*4+2 \; $f1*4+3,
f 26;
#X obj 375 135 until;
#X obj 375 158 f;
#X obj 375 181 sel;
#X obj 422 171 + 1;
#X msg 394 112 0;
#X obj 375 88 t b b f b;
#X obj 348 60 t f f;
#X obj 543 470 makefilename \\\$0-vsl-pointer-%d;
#X obj 339 400 t f f;
#X obj 569 498 makefilename \\\$0-vsl-%d;
#X obj 390 541 pack 0 0 0 0 0 0 0 0 0 0 s s;
#X msg 390 627 obj \$3 \$4 r \$11 \, obj \$3 \$5 pointer \, obj \$2
\$5 r \$12 \, obj \$2 \$6 set \\\$0-slider h \, connect \$7 0 \$8 0
\, connect \$8 0 \$10 1 \, connect \$9 0 \$10 0;
#X obj 348 38 f \$4;
#N canvas 25 14 2214 684 \$0-vsl-rcv 0;
#X obj 137 50 r \$0-vsl-pointer-0;
#X obj 137 75 pointer;
#X obj 50 75 r \$0-vsl-0;
#X obj 50 100 set \$0-slider h;
#X obj 237 75 r \$0-vsl-pointer-1;
#X obj 237 100 pointer;
#X obj 150 100 r \$0-vsl-1;
#X obj 150 125 set \$0-slider h;
#X obj 337 100 r \$0-vsl-pointer-2;
#X obj 337 125 pointer;
#X obj 250 125 r \$0-vsl-2;
#X obj 250 150 set \$0-slider h;
#X obj 437 125 r \$0-vsl-pointer-3;
#X obj 437 150 pointer;
#X obj 350 150 r \$0-vsl-3;
#X obj 350 175 set \$0-slider h;
#X obj 537 150 r \$0-vsl-pointer-4;
#X obj 537 175 pointer;
#X obj 450 175 r \$0-vsl-4;
#X obj 450 200 set \$0-slider h;
#X obj 637 175 r \$0-vsl-pointer-5;
#X obj 637 200 pointer;
#X obj 550 200 r \$0-vsl-5;
#X obj 550 225 set \$0-slider h;
#X obj 737 200 r \$0-vsl-pointer-6;
#X obj 737 225 pointer;
#X obj 650 225 r \$0-vsl-6;
#X obj 650 250 set \$0-slider h;
#X obj 837 225 r \$0-vsl-pointer-7;
#X obj 837 250 pointer;
#X obj 750 250 r \$0-vsl-7;
#X obj 750 275 set \$0-slider h;
#X obj 937 250 r \$0-vsl-pointer-8;
#X obj 937 275 pointer;
#X obj 850 275 r \$0-vsl-8;
#X obj 850 300 set \$0-slider h;
#X obj 1037 275 r \$0-vsl-pointer-9;
#X obj 1037 300 pointer;
#X obj 950 300 r \$0-vsl-9;
#X obj 950 325 set \$0-slider h;
#X obj 1137 300 r \$0-vsl-pointer-10;
#X obj 1137 325 pointer;
#X obj 1050 325 r \$0-vsl-10;
#X obj 1050 350 set \$0-slider h;
#X obj 1237 325 r \$0-vsl-pointer-11;
#X obj 1237 350 pointer;
#X obj 1150 350 r \$0-vsl-11;
#X obj 1150 375 set \$0-slider h;
#X obj 1337 350 r \$0-vsl-pointer-12;
#X obj 1337 375 pointer;
#X obj 1250 375 r \$0-vsl-12;
#X obj 1250 400 set \$0-slider h;
#X obj 1437 375 r \$0-vsl-pointer-13;
#X obj 1437 400 pointer;
#X obj 1350 400 r \$0-vsl-13;
#X obj 1350 425 set \$0-slider h;
#X obj 1537 400 r \$0-vsl-pointer-14;
#X obj 1537 425 pointer;
#X obj 1450 425 r \$0-vsl-14;
#X obj 1450 450 set \$0-slider h;
#X obj 1637 425 r \$0-vsl-pointer-15;
#X obj 1637 450 pointer;
#X obj 1550 450 r \$0-vsl-15;
#X obj 1550 475 set \$0-slider h;
#X connect 0 0 1 0;
#X connect 1 0 3 1;
#X connect 2 0 3 0;
#X connect 4 0 5 0;
#X connect 5 0 7 1;
#X connect 6 0 7 0;
#X connect 8 0 9 0;
#X connect 9 0 11 1;
#X connect 10 0 11 0;
#X connect 12 0 13 0;
#X connect 13 0 15 1;
#X connect 14 0 15 0;
#X connect 16 0 17 0;
#X connect 17 0 19 1;
#X connect 18 0 19 0;
#X connect 20 0 21 0;
#X connect 21 0 23 1;
#X connect 22 0 23 0;
#X connect 24 0 25 0;
#X connect 25 0 27 1;
#X connect 26 0 27 0;
#X connect 28 0 29 0;
#X connect 29 0 31 1;
#X connect 30 0 31 0;
#X connect 32 0 33 0;
#X connect 33 0 35 1;
#X connect 34 0 35 0;
#X connect 36 0 37 0;
#X connect 37 0 39 1;
#X connect 38 0 39 0;
#X connect 40 0 41 0;
#X connect 41 0 43 1;
#X connect 42 0 43 0;
#X connect 44 0 45 0;
#X connect 45 0 47 1;
#X connect 46 0 47 0;
#X connect 48 0 49 0;
#X connect 49 0 51 1;
#X connect 50 0 51 0;
#X connect 52 0 53 0;
#X connect 53 0 55 1;
#X connect 54 0 55 0;
#X connect 56 0 57 0;
#X connect 57 0 59 1;
#X connect 58 0 59 0;
#X connect 60 0 61 0;
#X connect 61 0 63 1;
#X connect 62 0 63 0;
#X restore 42 62 pd \$0-vsl-rcv;
#X obj 390 732 s pd-\$0-vsl-rcv;
#X obj 348 14 inlet;
#X connect 0 0 10 0;
#X connect 1 0 0 0;
#X connect 3 0 4 0;
#X connect 4 0 5 0;
#X connect 5 0 3 1;
#X connect 5 1 6 0;
#X connect 5 1 8 0;
#X connect 6 0 4 1;
#X connect 7 0 4 1;
#X connect 8 0 11 0;
#X connect 9 0 3 0;
#X connect 9 1 7 0;
#X connect 9 2 5 1;
#X connect 9 3 1 0;
#X connect 10 0 2 0;
#X connect 11 0 13 0;
#X connect 11 1 12 0;
#X connect 12 0 2 0;
#X connect 13 0 2 0;
#X connect 14 0 16 0;
#X connect 15 0 31 0;
#X connect 16 0 25 0;
#X connect 16 1 27 1;
#X connect 16 2 27 2;
#X connect 16 3 27 3;
#X connect 16 4 27 4;
#X connect 16 5 27 5;
#X connect 16 6 27 6;
#X connect 16 7 27 7;
#X connect 16 8 27 8;
#X connect 16 9 27 9;
#X connect 17 0 18 0;
#X connect 18 0 19 0;
#X connect 19 0 17 1;
#X connect 19 1 20 0;
#X connect 19 1 14 0;
#X connect 20 0 18 1;
#X connect 21 0 18 1;
#X connect 22 0 17 0;
#X connect 22 1 21 0;
#X connect 22 2 19 1;
#X connect 22 3 15 0;
#X connect 23 0 9 0;
#X connect 23 1 22 0;
#X connect 24 0 27 10;
#X connect 25 0 27 0;
#X connect 25 1 24 0;
#X connect 25 1 26 0;
#X connect 26 0 27 11;
#X connect 27 0 28 0;
#X connect 28 0 31 0;
#X connect 29 0 23 0;
#X connect 32 0 29 0;
#X restore 23 106 pd rcv-factory;
#X obj 95 50 t b b;
#X obj 192 386 + 1;
#X obj 37 6 inlet;
#X connect 0 0 1 0;
#X connect 1 0 30 0;
#X connect 2 0 22 0;
#X connect 3 0 4 0;
#X connect 3 0 7 0;
#X connect 4 0 6 0;
#X connect 6 0 5 5;
#X connect 9 0 8 0;
#X connect 10 0 20 0;
#X connect 11 0 12 0;
#X connect 12 0 13 0;
#X connect 12 1 15 0;
#X connect 13 0 14 0;
#X connect 14 0 23 0;
#X connect 15 0 14 1;
#X connect 16 0 14 1;
#X connect 17 0 11 0;
#X connect 18 0 24 0;
#X connect 18 1 19 0;
#X connect 18 1 31 0;
#X connect 19 0 24 1;
#X connect 20 0 11 0;
#X connect 20 1 19 1;
#X connect 20 1 24 2;
#X connect 20 2 21 0;
#X connect 21 0 3 0;
#X connect 21 1 9 0;
#X connect 22 0 10 0;
#X connect 23 0 13 1;
#X connect 23 1 16 0;
#X connect 23 1 18 0;
#X connect 24 0 25 0;
#X connect 25 0 5 0;
#X connect 26 0 24 3;
#X connect 26 0 27 0;
#X connect 28 0 26 0;
#X connect 30 0 29 0;
#X connect 30 1 2 0;
#X connect 31 0 26 0;
#X connect 32 0 1 0;
#X restore 638 39 pd msl-init;
#N canvas 1955 47 442 247 msl-set 0;
#X obj 131 27 inlet;
#X obj 131 50 unpack 0 0;
#X obj 131 73 swap;
#X obj 131 185 send;
#X obj 152 107 makefilename \$0-vsl-%d;
#X connect 0 0 1 0;
#X connect 1 0 2 0;
#X connect 1 1 2 1;
#X connect 2 0 3 0;
#X connect 2 1 4 0;
#X connect 4 0 3 1;
#X restore 1112 798 pd msl-set;
#X obj 1112 775 pack 0 0;
#X msg 833 1074 donecanvasdialog 1 -1 2 0 \$2 \$1 0 \$1 \$2 0 0;
#X obj 833 1097 s pd-\$0-msl-subpatch;
#X obj 1071 610 + 1;
#X obj 916 795 pack 0 0;
#X obj 916 750 expr int(\$4*$f1/\$1);
#X obj 1134 688 unpack 0 0;
#X floatatom 1005 707 10 0 0 0 - - - 0;
#X obj 1305 627 f \$2;
#X obj 1279 576 loadbang;
#X obj 1315 601 bng 15 250 50 0 empty empty empty 17 7 0 10 #fcfcfc
#000000 #000000;
#X msg 1074 500 1 67;
#X obj 1163 552 r \$5;
#X obj 933 824 s \$5;
#X floatatom 618 108 5 0 0 0 - - - 0;
#X floatatom 1258 462 5 0 0 0 - - - 0;
#X obj 684 69 loadbang;
#X msg 684 92 0;
#X obj 684 115 tabread \$6;
#X obj 869 817 bng 15 250 50 0 empty empty empty 17 7 0 10 #fcfcfc
#000000 #000000;
#X obj 1039 875 bng 15 250 50 0 empty empty empty 17 7 0 10 #fcfcfc
#000000 #000000;
#X obj 930 68 loadbang;
#X obj 930 91 del 200;
#X obj 1163 365 inlet;
#X obj 1134 655 route set bg-color list reset;
#X obj 1236 810 s \$0-reset;
#X obj 1236 781 bng 15 250 50 0 empty empty empty 17 7 0 10 #fcfcfc
#000000 #000000;
#X text 561 203 background color;
#X msg 1133 504 set 1 0.5;
#X floatatom 1316 656 5 0 0 0 - - - 0;
#X obj 961 676 expr ($f1/($f2-1));
#X obj 1191 713 expr ($f1)*($f2-1);
#X connect 0 0 1 0;
#X connect 0 1 9 0;
#X connect 0 1 2 0;
#X connect 1 0 108 0;
#X connect 6 0 243 2;
#X connect 7 0 8 0;
#X connect 8 0 171 0;
#X connect 8 1 84 0;
#X connect 9 0 243 0;
#X connect 10 0 243 1;
#X connect 13 0 196 0;
#X connect 13 0 252 0;
#X connect 13 0 271 0;
#X connect 14 0 88 0;
#X connect 14 0 89 0;
#X connect 15 0 85 0;
#X connect 15 1 0 0;
#X connect 16 0 109 0;
#X connect 19 0 244 2;
#X connect 20 0 244 0;
#X connect 21 0 244 1;
#X connect 22 0 16 0;
#X connect 22 1 20 0;
#X connect 22 1 17 0;
#X connect 23 0 22 0;
#X connect 26 0 36 0;
#X connect 26 0 41 0;
#X connect 26 0 43 0;
#X connect 26 0 37 0;
#X connect 26 0 38 0;
#X connect 26 0 230 0;
#X connect 26 0 255 0;
#X connect 29 0 44 1;
#X connect 30 0 56 0;
#X connect 30 1 33 0;
#X connect 32 0 31 0;
#X connect 33 0 40 0;
#X connect 35 0 92 0;
#X connect 35 0 93 0;
#X connect 36 0 27 0;
#X connect 37 0 106 0;
#X connect 38 0 107 0;
#X connect 40 0 80 0;
#X connect 40 1 81 0;
#X connect 41 0 42 0;
#X connect 43 0 28 0;
#X connect 45 0 196 0;
#X connect 47 0 48 0;
#X connect 48 0 247 2;
#X connect 49 0 47 0;
#X connect 50 0 51 0;
#X connect 51 0 53 2;
#X connect 52 0 50 0;
#X connect 53 0 54 0;
#X connect 55 0 59 1;
#X connect 56 0 67 0;
#X connect 56 1 105 0;
#X connect 56 1 104 0;
#X connect 57 0 32 0;
#X connect 57 1 35 0;
#X connect 58 0 57 0;
#X connect 58 1 59 0;
#X connect 59 0 98 0;
#X connect 59 0 99 0;
#X connect 60 0 62 0;
#X connect 60 0 70 0;
#X connect 61 0 63 0;
#X connect 61 0 71 0;
#X connect 64 0 26 0;
#X connect 65 0 64 1;
#X connect 66 0 26 1;
#X connect 67 0 58 0;
#X connect 67 1 64 0;
#X connect 68 0 69 0;
#X connect 68 1 60 0;
#X connect 68 2 61 0;
#X connect 68 2 236 0;
#X connect 69 0 75 0;
#X connect 70 0 72 0;
#X connect 71 0 72 1;
#X connect 72 0 69 1;
#X connect 73 0 136 0;
#X connect 74 0 137 0;
#X connect 75 0 100 0;
#X connect 75 1 74 0;
#X connect 75 1 73 0;
#X connect 78 0 84 2;
#X connect 79 0 85 2;
#X connect 80 0 39 0;
#X connect 81 0 39 0;
#X connect 84 0 15 0;
#X connect 84 1 10 0;
#X connect 84 1 3 0;
#X connect 85 0 23 0;
#X connect 85 1 21 0;
#X connect 85 1 18 0;
#X connect 86 0 88 1;
#X connect 87 0 89 1;
#X connect 90 0 105 1;
#X connect 91 0 104 1;
#X connect 94 0 92 1;
#X connect 95 0 93 1;
#X connect 96 0 98 1;
#X connect 97 0 99 1;
#X connect 100 0 101 0;
#X connect 100 1 248 0;
#X connect 100 2 49 0;
#X connect 101 0 30 0;
#X connect 101 1 135 0;
#X connect 101 2 52 0;
#X connect 102 0 82 0;
#X connect 103 0 83 0;
#X connect 104 0 103 0;
#X connect 105 0 102 0;
#X connect 108 0 243 0;
#X connect 109 0 244 0;
#X connect 110 0 111 0;
#X connect 111 0 117 0;
#X connect 112 0 119 0;
#X connect 113 0 124 0;
#X connect 114 0 110 0;
#X connect 114 1 111 1;
#X connect 115 0 114 0;
#X connect 116 0 246 2;
#X connect 117 0 169 0;
#X connect 117 1 245 0;
#X connect 118 0 246 0;
#X connect 119 0 120 0;
#X connect 119 1 153 0;
#X connect 120 0 153 0;
#X connect 121 0 181 0;
#X connect 122 0 182 0;
#X connect 123 0 154 0;
#X connect 124 0 123 0;
#X connect 124 1 154 0;
#X connect 125 0 120 1;
#X connect 126 0 123 1;
#X connect 127 0 128 0;
#X connect 127 1 129 0;
#X connect 127 2 241 0;
#X connect 130 0 131 0;
#X connect 130 1 127 0;
#X connect 132 0 133 0;
#X connect 132 1 44 0;
#X connect 134 0 135 1;
#X connect 135 0 53 0;
#X connect 136 0 76 0;
#X connect 137 0 77 0;
#X connect 138 0 132 0;
#X connect 139 0 130 0;
#X connect 140 0 130 0;
#X connect 141 0 130 0;
#X connect 142 0 194 1;
#X connect 143 0 195 1;
#X connect 144 0 179 0;
#X connect 144 1 147 0;
#X connect 144 2 157 0;
#X connect 145 0 180 0;
#X connect 145 1 146 0;
#X connect 145 2 158 0;
#X connect 146 0 159 0;
#X connect 146 1 152 0;
#X connect 147 0 160 0;
#X connect 147 1 151 0;
#X connect 148 0 151 1;
#X connect 149 0 152 1;
#X connect 150 0 183 0;
#X connect 151 0 150 0;
#X connect 152 0 150 1;
#X connect 155 0 194 0;
#X connect 156 0 195 0;
#X connect 163 0 177 2;
#X connect 164 0 177 1;
#X connect 167 0 168 0;
#X connect 168 0 172 0;
#X connect 168 1 165 0;
#X connect 168 1 259 0;
#X connect 168 2 166 0;
#X connect 168 2 257 0;
#X connect 168 2 284 0;
#X connect 169 0 176 0;
#X connect 169 1 118 0;
#X connect 171 0 184 0;
#X connect 171 1 14 0;
#X connect 174 0 177 0;
#X connect 175 0 173 0;
#X connect 176 0 170 0;
#X connect 177 0 178 0;
#X connect 178 0 189 0;
#X connect 179 0 161 0;
#X connect 180 0 162 0;
#X connect 181 0 179 2;
#X connect 182 0 180 2;
#X connect 184 0 175 0;
#X connect 184 1 185 0;
#X connect 185 0 186 0;
#X connect 189 0 188 0;
#X connect 190 0 189 1;
#X connect 192 0 11 0;
#X connect 192 0 12 0;
#X connect 192 0 34 0;
#X connect 192 0 250 0;
#X connect 193 0 191 0;
#X connect 194 0 144 0;
#X connect 195 0 145 0;
#X connect 196 0 68 0;
#X connect 196 1 193 0;
#X connect 196 2 192 0;
#X connect 230 0 25 0;
#X connect 232 0 61 1;
#X connect 233 0 60 1;
#X connect 234 0 130 0;
#X connect 236 0 235 0;
#X connect 242 0 236 1;
#X connect 245 0 112 0;
#X connect 245 1 113 0;
#X connect 247 0 46 0;
#X connect 248 0 247 0;
#X connect 254 0 253 0;
#X connect 255 0 256 0;
#X connect 257 0 254 1;
#X connect 258 0 187 0;
#X connect 258 0 267 0;
#X connect 258 0 273 0;
#X connect 258 0 278 0;
#X connect 259 0 258 0;
#X connect 260 0 254 0;
#X connect 260 1 285 0;
#X connect 262 0 283 0;
#X connect 262 0 284 1;
#X connect 262 0 285 1;
#X connect 263 0 262 0;
#X connect 264 0 262 0;
#X connect 265 0 278 0;
#X connect 266 0 278 0;
#X connect 268 0 132 0;
#X connect 270 0 271 0;
#X connect 271 0 272 0;
#X connect 272 0 132 0;
#X connect 275 0 276 0;
#X connect 276 0 13 0;
#X connect 277 0 278 0;
#X connect 278 0 260 0;
#X connect 278 0 274 0;
#X connect 278 1 269 0;
#X connect 278 2 260 0;
#X connect 278 2 187 0;
#X connect 278 3 280 0;
#X connect 280 0 279 0;
#X connect 282 0 278 0;
#X connect 284 0 258 1;
#X connect 284 0 261 0;
#X connect 285 0 254 1;
#X coords 0 132 240 0 240 132 2 900 150;
