#N struct 2579-slider float x float y float w float h float c;
#N canvas 2139 24 1333 936 10;
#N canvas 775 335 470 178 \$0-rectangle 0;
#X obj 44 93 s \$0-rectangle;
#X obj 44 116 filledpolygon c 0 0 0 0 1 0 1 1 0 1;
#X obj 44 70 struct \$0-rectangle float x float c;
#X text 42 34 This is a one pixel polygon that will be stretched to
the size of the area;
#X connect 2 0 0 0;
#X restore 480 86 pd \$0-rectangle;
#N canvas 672 290 336 162 \$0-pixel 0;
#X obj 44 73 s \$0-pixel;
#X obj 44 50 struct \$0-pixel float x0 float y0;
#X obj 44 96 drawpolygon 0 0 0 0 x0 y0;
#X connect 1 0 0 0;
#X restore 480 63 pd \$0-pixel;
#X obj 230 8 bng 15 250 50 0 empty \$0-reset reset 17 7 0 10 #fcfcfc
#000000 #000000;
#X obj 480 40 namecanvas \$0-this;
#X obj 61 825 s \$0-this;
#X obj 61 692 pack;
#X obj 647 166 r \$0-rectanglePointer;
#X obj 34 883 s \$0-this;
#X msg 34 860 dirty 0;
#X msg 91 715 donecanvasdialog 1 -1 2 0 \$2 \$1 0 \$1 \$2 0 0;
#X obj 542 190 set \$0-rectangle c;
#X obj 34 40 loadbang;
#X obj 53 247 \$1;
#X obj 124 247 \$2;
#X obj 53 270 s \$0-width;
#X obj 124 270 s \$0-height;
#X obj 61 669 f;
#X obj 76 646 r \$0-width;
#X obj 91 669 r \$0-height;
#X obj 34 646 t b b;
#X obj 34 224 t b b b;
#X obj 34 339 spigot;
#X obj 67 293 >;
#X obj 95 293 >;
#X obj 67 316 *;
#X obj 476 207 t f f;
#X obj 472 260 s \$0-color;
#X floatatom 425 78 5 0 0 1 color \$0-noreceive - 0;
#X obj 53 201 s \$0-this;
#X msg 73 86 clear \, donecanvasdialog 1 -1 0 0 0 0 0 0 0 0 0;
#X msg 53 178 donecanvasdialog 1 -1 0 0 0 0 0 0 0 0 0 \, dirty 0;
#X obj 34 63 t b b b;
#X text 98 64 Clear everything and disable GOP for now;
#X text 62 442 Create rectangle;
#X text 154 647 Activate GOP on everything;
#X text 102 1627 Protect from save dialog;
#X text 89 340 Only proceed if area size is at least one square;
#X msg 61 802 donecanvasdialog 1 -1 2 0 \$2 \$1 0 \$1 \$2 900 150;
#X text 899 130 pixelSubpatch \, rectangleSubpatch \, tablesSubpatch
;
#X text 149 202 Get mode and dimensions;
#N canvas 775 335 470 178 \$0-slider 0;
#X text 42 34 This is a one pixel polygon that will be stretched to
the size of the area;
#X obj 45 98 s \$0-slider;
#X obj 45 121 filledpolygon c 0 0 0 0 w 0 w h 0 h;
#X obj 45 71 struct \$0-slider float x float y float w float h float
c;
#X connect 3 0 1 0;
#X restore 479 111 pd \$0-slider;
#N canvas 1955 47 1260 491 msl-set 0;
#X obj 131 27 inlet;
#X obj 131 50 unpack 0 0;
#X obj 131 73 swap;
#X obj 131 185 send;
#X symbolatom 167 128 10 0 0 0 - - - 0;
#X obj 152 107 makefilename \$0-%d-vu;
#X connect 0 0 1 0;
#X connect 1 0 2 0;
#X connect 1 1 2 1;
#X connect 2 0 3 0;
#X connect 2 1 5 0;
#X connect 5 0 3 1;
#X connect 5 0 4 0;
#X restore 512 838 pd msl-set;
#X obj 512 815 pack 0 0;
#X obj 534 728 unpack 0 0;
#X obj 591 753 expr ($f1/127)*($f2-1);
#X obj 705 667 f \$2;
#X obj 679 616 loadbang;
#X obj 715 641 bng 15 250 50 0 empty empty empty 17 7 0 10 #fcfcfc
#000000 #000000;
#X msg 474 540 1 67;
#X msg 533 544 set 1 127;
#X obj 563 592 r \$5;
#X floatatom 485 142 5 0 0 0 - - - 0;
#X floatatom 658 502 5 0 0 0 - - - 0;
#X obj 684 69 loadbang;
#X msg 684 92 0;
#X obj 930 68 loadbang;
#X obj 930 91 del 200;
#X obj 563 405 inlet;
#X obj 534 695 route set bg-color list reset;
#X obj 636 850 s \$0-reset;
#X obj 636 821 bng 15 250 50 0 empty empty empty 17 7 0 10 #fcfcfc
#000000 #000000;
#X text 590 256 background color;
#N canvas 932 83 920 859 \$0-mvu-subpatch 0;
#X scalar 2579-slider 0 0 15 0 357 \;;
#X scalar 2579-slider 15 0 15 0 357 \;;
#X scalar 2579-slider 30 0 15 0 357 \;;
#X scalar 2579-slider 45 0 15 0 357 \;;
#X scalar 2579-slider 60 0 15 0 357 \;;
#X scalar 2579-slider 75 0 15 0 357 \;;
#X scalar 2579-slider 90 0 15 0 357 \;;
#X scalar 2579-slider 105 0 15 0 357 \;;
#X scalar 2579-slider 120 0 15 0 357 \;;
#X scalar 2579-slider 135 0 15 0 357 \;;
#X scalar 2579-slider 150 0 15 0 357 \;;
#X scalar 2579-slider 165 0 15 0 357 \;;
#X scalar 2579-slider 180 0 15 0 357 \;;
#X scalar 2579-slider 195 0 15 0 357 \;;
#X scalar 2579-slider 210 0 15 0 357 \;;
#X scalar 2579-slider 225 0 15 0 357 \;;
#X coords 0 60 240 0 240 60 2 0 0;
#X restore 900 150 pd \$0-mvu-subpatch;
#X obj 108 742 s pd-\$0-mvu-subpatch;
#X obj 81 136 s pd-\$0-rectangleSubpatch;
#X obj 91 770 s pd-\$0-rectangleSubpatch;
#X msg 216 468 clear;
#X obj 216 493 s pd-\$0-rectangleSubpatch;
#X msg 186 540 traverse \$1 \, bang;
#X obj 186 563 pointer;
#X obj 186 517 symbol pd-\$0-rectangleSubpatch;
#X obj 51 586 append \$0-rectangle x c;
#X obj 201 587 s \$0-rectanglePointer;
#X obj 108 540 r \$0-color;
#X obj 51 563 pack 0 999;
#X text 385 1104 comment;
#X obj 34 374 t b b b b;
#X obj 87 113 s pd-\$0-mvu-subpatch;
#X floatatom 117 691 5 0 0 0 - - - 0;
#N canvas 549 301 831 632 mvu-init 0;
#X obj 95 7 loadbang;
#X obj 95 30 bng 15 250 50 0 empty empty empty 17 7 0 10 #fcfcfc #000000
#000000;
#X obj 122 106 f \$1;
#X msg 279 487 traverse \$1 \, bang;
#X obj 105 548 append \$0-slider x y w h c;
#X obj 279 510 pointer;
#X obj 278 487;
#X msg 305 412 clear;
#X floatatom 122 153 5 0 0 0 - - - 0;
#X obj 100 236 t b b f;
#X obj 102 287 until;
#X obj 102 310 f;
#X msg 119 258 0;
#X obj 155 331 + 1;
#X obj 137 417 t f f;
#X obj 164 445 *;
#X obj 122 175 t b f b;
#X obj 278 364 t b b;
#X obj 137 470 pack 0 0 0 0;
#X msg 105 521 \$2 0 \$3 0 \$4;
#X floatatom 231 470 5 0 0 0 - - - 0;
#X floatatom 211 406 5 0 0 0 - - - 0;
#N canvas 673 251 829 767 rcv-factory 0;
#X obj 207 594 bng 15 250 50 0 empty empty empty 17 7 0 10 #fcfcfc
#000000 #000000;
#X obj 208 672 pointer;
#X obj 28 428 until;
#X obj 28 451 f;
#X obj 28 474 sel;
#X obj 75 464 + 1;
#X msg 47 405 0;
#X obj 43 497 pack 0 \$0;
#X obj 28 381 t b b f b;
#X msg 208 649 traverse \$1;
#X obj 43 520 t a b;
#X msg 70 546 next;
#X msg 45 579 send \$2-vsl-pointer-\$1;
#X obj 390 212 t f;
#X msg 543 579 clear;
#X obj 390 235 expr $f1 \; $f1*100+50 \; $f1*100+137 \; $f1*25+50 \;
$f1*25+75 \; $f1*25+100 \; $f1*4 \; $f1*4+1 \; $f1*4+2 \; $f1*4+3,
f 26;
#X obj 375 135 until;
#X obj 375 158 f;
#X obj 375 181 sel;
#X obj 422 171 + 1;
#X msg 394 112 0;
#X obj 375 88 t b b f b;
#X obj 348 60 t f f;
#X obj 543 470 makefilename \\\$0-vsl-pointer-%d;
#X obj 339 400 t f f;
#X obj 390 541 pack 0 0 0 0 0 0 0 0 0 0 s s;
#X msg 390 627 obj \$3 \$4 r \$11 \, obj \$3 \$5 pointer \, obj \$2
\$5 r \$12 \, obj \$2 \$6 set \\\$0-slider h \, connect \$7 0 \$8 0
\, connect \$8 0 \$10 1 \, connect \$9 0 \$10 0;
#N canvas 0 14 2214 684 \$0-vsl-rcv 0;
#X obj 137 50 r \$0-vsl-pointer-0;
#X obj 137 75 pointer;
#X obj 50 75 r \$0-0-vu;
#X obj 50 100 set \$0-slider h;
#X obj 237 75 r \$0-vsl-pointer-1;
#X obj 237 100 pointer;
#X obj 150 100 r \$0-1-vu;
#X obj 150 125 set \$0-slider h;
#X obj 337 100 r \$0-vsl-pointer-2;
#X obj 337 125 pointer;
#X obj 250 125 r \$0-2-vu;
#X obj 250 150 set \$0-slider h;
#X obj 437 125 r \$0-vsl-pointer-3;
#X obj 437 150 pointer;
#X obj 350 150 r \$0-3-vu;
#X obj 350 175 set \$0-slider h;
#X obj 537 150 r \$0-vsl-pointer-4;
#X obj 537 175 pointer;
#X obj 450 175 r \$0-4-vu;
#X obj 450 200 set \$0-slider h;
#X obj 637 175 r \$0-vsl-pointer-5;
#X obj 637 200 pointer;
#X obj 550 200 r \$0-5-vu;
#X obj 550 225 set \$0-slider h;
#X obj 737 200 r \$0-vsl-pointer-6;
#X obj 737 225 pointer;
#X obj 650 225 r \$0-6-vu;
#X obj 650 250 set \$0-slider h;
#X obj 837 225 r \$0-vsl-pointer-7;
#X obj 837 250 pointer;
#X obj 750 250 r \$0-7-vu;
#X obj 750 275 set \$0-slider h;
#X obj 937 250 r \$0-vsl-pointer-8;
#X obj 937 275 pointer;
#X obj 850 275 r \$0-8-vu;
#X obj 850 300 set \$0-slider h;
#X obj 1037 275 r \$0-vsl-pointer-9;
#X obj 1037 300 pointer;
#X obj 950 300 r \$0-9-vu;
#X obj 950 325 set \$0-slider h;
#X obj 1137 300 r \$0-vsl-pointer-10;
#X obj 1137 325 pointer;
#X obj 1050 325 r \$0-10-vu;
#X obj 1050 350 set \$0-slider h;
#X obj 1237 325 r \$0-vsl-pointer-11;
#X obj 1237 350 pointer;
#X obj 1150 350 r \$0-11-vu;
#X obj 1150 375 set \$0-slider h;
#X obj 1337 350 r \$0-vsl-pointer-12;
#X obj 1337 375 pointer;
#X obj 1250 375 r \$0-12-vu;
#X obj 1250 400 set \$0-slider h;
#X obj 1437 375 r \$0-vsl-pointer-13;
#X obj 1437 400 pointer;
#X obj 1350 400 r \$0-13-vu;
#X obj 1350 425 set \$0-slider h;
#X obj 1537 400 r \$0-vsl-pointer-14;
#X obj 1537 425 pointer;
#X obj 1450 425 r \$0-14-vu;
#X obj 1450 450 set \$0-slider h;
#X obj 1637 425 r \$0-vsl-pointer-15;
#X obj 1637 450 pointer;
#X obj 1550 450 r \$0-15-vu;
#X obj 1550 475 set \$0-slider h;
#X connect 0 0 1 0;
#X connect 1 0 3 1;
#X connect 2 0 3 0;
#X connect 4 0 5 0;
#X connect 5 0 7 1;
#X connect 6 0 7 0;
#X connect 8 0 9 0;
#X connect 9 0 11 1;
#X connect 10 0 11 0;
#X connect 12 0 13 0;
#X connect 13 0 15 1;
#X connect 14 0 15 0;
#X connect 16 0 17 0;
#X connect 17 0 19 1;
#X connect 18 0 19 0;
#X connect 20 0 21 0;
#X connect 21 0 23 1;
#X connect 22 0 23 0;
#X connect 24 0 25 0;
#X connect 25 0 27 1;
#X connect 26 0 27 0;
#X connect 28 0 29 0;
#X connect 29 0 31 1;
#X connect 30 0 31 0;
#X connect 32 0 33 0;
#X connect 33 0 35 1;
#X connect 34 0 35 0;
#X connect 36 0 37 0;
#X connect 37 0 39 1;
#X connect 38 0 39 0;
#X connect 40 0 41 0;
#X connect 41 0 43 1;
#X connect 42 0 43 0;
#X connect 44 0 45 0;
#X connect 45 0 47 1;
#X connect 46 0 47 0;
#X connect 48 0 49 0;
#X connect 49 0 51 1;
#X connect 50 0 51 0;
#X connect 52 0 53 0;
#X connect 53 0 55 1;
#X connect 54 0 55 0;
#X connect 56 0 57 0;
#X connect 57 0 59 1;
#X connect 58 0 59 0;
#X connect 60 0 61 0;
#X connect 61 0 63 1;
#X connect 62 0 63 0;
#X restore 42 62 pd \$0-vsl-rcv;
#X obj 390 732 s pd-\$0-vsl-rcv;
#X obj 348 14 inlet;
#X obj 348 38 f \$3;
#X obj 569 498 makefilename \\\$0-%d-vu;
#X obj 208 626 symbol pd-\$0-mvu-subpatch;
#X connect 0 0 32 0;
#X connect 2 0 3 0;
#X connect 3 0 4 0;
#X connect 4 0 2 1;
#X connect 4 1 5 0;
#X connect 4 1 7 0;
#X connect 5 0 3 1;
#X connect 6 0 3 1;
#X connect 7 0 10 0;
#X connect 8 0 2 0;
#X connect 8 1 6 0;
#X connect 8 2 4 1;
#X connect 8 3 0 0;
#X connect 9 0 1 0;
#X connect 10 0 12 0;
#X connect 10 1 11 0;
#X connect 11 0 1 0;
#X connect 12 0 1 0;
#X connect 13 0 15 0;
#X connect 14 0 28 0;
#X connect 15 0 24 0;
#X connect 15 1 25 1;
#X connect 15 2 25 2;
#X connect 15 3 25 3;
#X connect 15 4 25 4;
#X connect 15 5 25 5;
#X connect 15 6 25 6;
#X connect 15 7 25 7;
#X connect 15 8 25 8;
#X connect 15 9 25 9;
#X connect 16 0 17 0;
#X connect 17 0 18 0;
#X connect 18 0 16 1;
#X connect 18 1 19 0;
#X connect 18 1 13 0;
#X connect 19 0 17 1;
#X connect 20 0 17 1;
#X connect 21 0 16 0;
#X connect 21 1 20 0;
#X connect 21 2 18 1;
#X connect 21 3 14 0;
#X connect 22 0 8 0;
#X connect 22 1 21 0;
#X connect 23 0 25 10;
#X connect 24 0 25 0;
#X connect 24 1 23 0;
#X connect 24 1 31 0;
#X connect 25 0 26 0;
#X connect 26 0 28 0;
#X connect 29 0 30 0;
#X connect 30 0 22 0;
#X connect 31 0 25 11;
#X connect 32 0 9 0;
#X restore 23 106 pd rcv-factory;
#X obj 95 50 t b b;
#X obj 192 386 + 1;
#X obj 37 6 inlet;
#X obj 122 129 / \$3;
#X obj 102 333 sel \$3;
#X obj 305 437 s pd-\$0-mvu-subpatch;
#X obj 278 464 symbol pd-\$0-mvu-subpatch;
#X obj 206 445 tabread \$5;
#X connect 0 0 1 0;
#X connect 1 0 23 0;
#X connect 2 0 26 0;
#X connect 3 0 5 0;
#X connect 5 0 4 5;
#X connect 7 0 28 0;
#X connect 8 0 16 0;
#X connect 9 0 10 0;
#X connect 9 1 12 0;
#X connect 10 0 11 0;
#X connect 11 0 27 0;
#X connect 12 0 11 1;
#X connect 13 0 11 1;
#X connect 14 0 18 0;
#X connect 14 1 15 0;
#X connect 14 1 24 0;
#X connect 15 0 18 1;
#X connect 16 0 9 0;
#X connect 16 1 15 1;
#X connect 16 1 18 2;
#X connect 16 2 17 0;
#X connect 17 0 29 0;
#X connect 17 1 7 0;
#X connect 18 0 19 0;
#X connect 19 0 4 0;
#X connect 21 0 30 0;
#X connect 23 0 22 0;
#X connect 23 1 2 0;
#X connect 24 0 30 0;
#X connect 25 0 1 0;
#X connect 26 0 8 0;
#X connect 27 0 10 1;
#X connect 27 1 13 0;
#X connect 27 1 14 0;
#X connect 29 0 3 0;
#X connect 29 0 6 0;
#X connect 30 0 18 3;
#X connect 30 0 20 0;
#X restore 229 39 pd mvu-init;
#X obj 684 115 tabread \$5;
#X obj 511 484 r \$4;
#X connect 2 0 31 0;
#X connect 2 0 79 0;
#X connect 2 0 54 0;
#X connect 5 0 9 0;
#X connect 5 0 37 0;
#X connect 6 0 10 1;
#X connect 8 0 7 0;
#X connect 9 0 63 0;
#X connect 9 0 65 0;
#X connect 11 0 31 0;
#X connect 12 0 14 0;
#X connect 12 0 22 0;
#X connect 13 0 15 0;
#X connect 13 0 23 0;
#X connect 16 0 5 0;
#X connect 17 0 16 1;
#X connect 18 0 5 1;
#X connect 18 0 78 0;
#X connect 19 0 8 0;
#X connect 19 1 16 0;
#X connect 20 0 21 0;
#X connect 20 1 12 0;
#X connect 20 2 13 0;
#X connect 21 0 76 0;
#X connect 22 0 24 0;
#X connect 23 0 24 1;
#X connect 24 0 21 1;
#X connect 25 0 26 0;
#X connect 27 0 25 0;
#X connect 29 0 64 0;
#X connect 29 0 77 0;
#X connect 30 0 28 0;
#X connect 31 0 20 0;
#X connect 31 1 30 0;
#X connect 31 2 29 0;
#X connect 37 0 4 0;
#X connect 42 0 41 0;
#X connect 43 0 42 0;
#X connect 43 1 44 0;
#X connect 44 0 42 1;
#X connect 45 0 44 1;
#X connect 46 0 45 0;
#X connect 47 0 45 0;
#X connect 48 0 58 0;
#X connect 49 0 58 0;
#X connect 50 0 58 0;
#X connect 51 0 25 0;
#X connect 52 0 25 0;
#X connect 53 0 54 0;
#X connect 54 0 80 0;
#X connect 55 0 56 0;
#X connect 56 0 2 0;
#X connect 57 0 58 0;
#X connect 58 0 43 0;
#X connect 58 1 52 0;
#X connect 58 2 43 0;
#X connect 58 3 60 0;
#X connect 60 0 59 0;
#X connect 66 0 67 0;
#X connect 68 0 69 0;
#X connect 69 0 71 2;
#X connect 69 0 72 0;
#X connect 70 0 68 0;
#X connect 73 0 74 1;
#X connect 74 0 71 0;
#X connect 76 0 19 0;
#X connect 80 0 25 0;
#X connect 81 0 58 0;
#X coords 0 60 240 0 240 60 2 900 150;
