#N canvas 616 173 994 845 12;
#X obj 182 18 loadbang;
#X floatatom 206 329 5 0 0 0 - - - 0;
#X floatatom 112 134 10 0 0 0 - - - 0;
#X obj 40 266 spigot;
#X obj 79 234 == 0;
#X obj 151 233 > 0;
#X obj 112 158 t f f, f 6;
#X obj 112 321 spigot;
#X obj 182 44 bng 15 250 50 0 empty empty empty 17 7 0 10 #fcfcfc #000000
#000000;
#X obj 206 304 - \$3;
#X obj 40 294 bng 15 250 50 0 empty empty empty 17 7 0 10 #fcfcfc #000000
#000000;
#X obj 112 79 inlet;
#X text 247 306 out_high - out_low;
#X obj 112 423 outlet;
#X obj 271 19 inlet out_low;
#X obj 375 19 inlet out_high;
#X obj 489 18 inlet curvature;
#X obj 489 107 sel 0;
#X msg 489 132 1;
#X floatatom 489 157 5 0 0 0 - - - 0;
#X obj 112 376 expr $f3 + ($f2 * pow($f1 \, $f4));
#X obj 253 175 t b f;
#X obj 206 224 sel 0;
#X msg 206 249 1;
#X floatatom 206 274 5 0 0 0 - - - 0;
#X obj 253 102 sel 0;
#X floatatom 253 152 5 0 0 0 - - - 0;
#X msg 253 127 0;
#X obj 253 75 f \$1;
#X obj 206 199 f \$2;
#X obj 489 82 f \$3;
#X obj 40 318 f \$1;
#X connect 0 0 8 0;
#X connect 1 0 20 1;
#X connect 2 0 6 0;
#X connect 3 0 10 0;
#X connect 4 0 3 1;
#X connect 5 0 7 1;
#X connect 6 0 3 0;
#X connect 6 0 7 0;
#X connect 6 1 5 0;
#X connect 6 1 4 0;
#X connect 7 0 20 0;
#X connect 8 0 28 0;
#X connect 8 0 29 0;
#X connect 8 0 30 0;
#X connect 9 0 1 0;
#X connect 10 0 31 0;
#X connect 11 0 2 0;
#X connect 14 0 28 0;
#X connect 15 0 29 0;
#X connect 16 0 30 0;
#X connect 17 0 18 0;
#X connect 17 1 19 0;
#X connect 18 0 19 0;
#X connect 19 0 20 3;
#X connect 20 0 13 0;
#X connect 21 0 29 0;
#X connect 21 1 9 1;
#X connect 21 1 20 2;
#X connect 22 0 23 0;
#X connect 22 1 24 0;
#X connect 23 0 24 0;
#X connect 24 0 9 0;
#X connect 25 0 27 0;
#X connect 25 1 26 0;
#X connect 26 0 21 0;
#X connect 27 0 26 0;
#X connect 28 0 25 0;
#X connect 29 0 22 0;
#X connect 30 0 17 0;
#X connect 31 0 13 0;
