#N canvas 17 2 773 772 12;
#X declare -path lib;
#X listbox 223 690 20 0 0 0 - - - 0;
#X obj 223 636 list prepend list;
#X obj 223 661 list trim;
#X obj 223 611 r \$1-ctl;
#X floatatom 68 235 5 0 0 0 - - - 0;
#X obj 83 182 loadbang;
#X msg 83 207 1;
#X obj 43 260 *~ 1;
#X obj 114 284 line~;
#X obj 44 311 *~;
#X msg 114 259 \$1 50;
#X floatatom 114 232 5 0 0 0 - - - 0;
#X obj 258 158 env~ 8192;
#X obj 258 183 - 100;
#X obj 259 212 vu 15 120 empty empty -1 -8 0 10 #404040 #000000 1 0;
#X msg 456 254 vis \$1 \$2;
#X obj 50 663 pack 0 0;
#X obj 45 569 hradio 15 1 0 16 empty empty empty 0 -8 0 10 #fcfcfc #000000 #000000 0;
#X obj 45 589 + 1;
#X obj 78 592 tgl 15 0 empty empty empty 17 7 0 10 #fcfcfc #000000 #000000 0 1;
#X obj 307 66 line~;
#X msg 307 41 \$1 50;
#X obj 285 96 *~;
#X obj 574 349 env~ 8192;
#X obj 574 374 - 100;
#X obj 575 403 vu 15 120 empty empty -1 -8 0 10 #404040 #000000 1 0;
#X obj 77 618 t b f;
#X obj 44 361 dac~ 1;
#X obj 237 51 adc~ 1;
#X obj 307 13 r \$1-gain;
#X obj 384 14 loadbang;
#X msg 384 39 \; pd dsp 1;
#X obj 13 -11 r orgel-ctl;
#N canvas 1035 92 544 456 dispatch-ctl 0;
#X obj 37 37 inlet;
#X obj 37 62 route level delay q gain osc-level;
#X msg 37 242 \$1 level \$2;
#X msg 225 116 \$1 osc-level \$2;
#X msg 178 145 \$1 gain \$2;
#X msg 131 176 \$1 q \$2;
#X msg 84 211 \$1 delay \$2;
#X obj 125 302 t a;
#X obj 416 125 list prepend all;
#X msg 153 26 level 1 0.4;
#X msg 294 32 ramp-up 293;
#X obj 73 353 list prepend set;
#X obj 73 378 list trim;
#X msg 73 403 all ramp-down 74;
#X obj 416 150 list trim;
#X obj 125 327 outlet;
#X obj 272 275 outlet;
#X obj 326 276 outlet;
#X obj 272 88 route phase main id;
#X obj 405 229 symbol;
#X obj 387 275 outlet;
#X connect 0 0 1 0;
#X connect 1 0 2 0;
#X connect 1 1 6 0;
#X connect 1 2 5 0;
#X connect 1 3 4 0;
#X connect 1 4 3 0;
#X connect 1 5 18 0;
#X connect 2 0 7 0;
#X connect 3 0 7 0;
#X connect 4 0 7 0;
#X connect 5 0 7 0;
#X connect 6 0 7 0;
#X connect 7 0 11 0;
#X connect 7 0 15 0;
#X connect 8 0 14 0;
#X connect 9 0 1 0;
#X connect 10 0 1 0;
#X connect 11 0 12 0;
#X connect 12 0 13 0;
#X connect 14 0 7 0;
#X connect 18 0 16 0;
#X connect 18 1 17 0;
#X connect 18 2 19 0;
#X connect 18 3 8 0;
#X connect 19 0 20 0;
#X restore 43 32 pd dispatch-ctl;
#X obj 43 125 clone -s 1 orgelmodulvoice 16 \$0;
#X text 65 59 phase;
#X obj 416 610 r \$0-measure-data;
#X obj 416 634 stdout;
#X symbolatom 145 61 10 0 0 0 - - - 0;
#X msg 667 101 id orgel01;
#X obj 13 476 print orgelmodul-in;
#X obj 13 450 spigot;
#X obj 52 398 r *debug*;
#X obj 52 423 tgl 20 0 empty empty empty 0 -10 0 12 #fcfcfc #000000 #000000 0 1;
#X text 118 86 main;
#X obj 100 -10 declare -path lib;
#X connect 1 0 2 0;
#X connect 2 0 0 0;
#X connect 3 0 1 0;
#X connect 4 0 7 1;
#X connect 5 0 6 0;
#X connect 6 0 4 0;
#X connect 7 0 9 0;
#X connect 8 0 9 1;
#X connect 9 0 27 0;
#X connect 10 0 8 0;
#X connect 11 0 10 0;
#X connect 12 0 13 0;
#X connect 13 0 14 0;
#X connect 15 0 34 0;
#X connect 16 0 15 0;
#X connect 17 0 18 0;
#X connect 18 0 16 0;
#X connect 19 0 26 0;
#X connect 20 0 22 1;
#X connect 21 0 20 0;
#X connect 22 0 34 1;
#X connect 23 0 24 0;
#X connect 24 0 25 0;
#X connect 26 0 16 0;
#X connect 26 1 16 1;
#X connect 28 0 22 0;
#X connect 28 0 23 0;
#X connect 29 0 21 0;
#X connect 30 0 31 0;
#X connect 32 0 33 0;
#X connect 32 0 41 0;
#X connect 33 0 34 0;
#X connect 33 1 4 0;
#X connect 33 2 11 0;
#X connect 33 3 38 0;
#X connect 34 0 7 0;
#X connect 34 0 12 0;
#X connect 36 0 37 0;
#X connect 39 0 33 0;
#X connect 41 0 40 0;
#X connect 42 0 43 0;
#X connect 43 0 41 1;
