#N canvas 409 8 917 975 12;
#X obj 18 10 inlet;
#X obj 94 206 * \$1;
#X floatatom 94 231 5 0 0 0 - - - 0;
#X obj 168 10 inlet~;
#N canvas 2271 42 910 797 delay~ 0;
#X obj 37 36 delwrite~ \$0-del 1000;
#X obj 37 10 inlet~;
#X obj 256 134 outlet~;
#X obj 256 19 inlet;
#X obj 256 80 line~;
#X obj 256 109 delread4~ \$0-del 0;
#X msg 256 48 \$1 50;
#X obj 380 24 block~ 1;
#X connect 1 0 0 0;
#X connect 3 0 6 0;
#X connect 4 0 5 0;
#X connect 5 0 2 0;
#X connect 6 0 4 0;
#X restore 18 344 pd delay~;
#X f 33;
#X obj 18 234 line~;
#X msg 18 204 \$1 50;
#X obj 18 259 *~, f 7;
#X obj 323 245 line~;
#X msg 323 219 \$1 50;
#X obj 19 507 *~, f 26;
#X obj 18 576 outlet~;
#X floatatom 18 162 10 0 0 0 - - - 0;
#X floatatom 133 136 10 0 0 0 - - - 0;
#X floatatom 170 162 10 0 0 0 - - - 0;
#X floatatom 323 162 11 0 0 0 - - - 0;
#X floatatom 247 162 10 0 0 0 - - - 0;
#X obj 405 307 line~;
#X msg 405 281 \$1 50;
#X floatatom 405 162 11 0 0 0 - - - 0;
#X obj 353 309 osc~;
#X obj 353 334 *~, f 8;
#X obj 446 227 loadbang;
#X msg 446 252 0;
#X text 411 187 osc-level;
#X text 327 182 level;
#X text 28 182 gain;
#X text 100 184 base-freq;
#X text 175 186 q;
#X text 252 186 delay;
#X obj 93 576 env~ 8192;
#X floatatom 93 781 5 0 0 0 - - - 0;
#X obj 93 866 s \$2-measure-data;
#X obj 93 755 change;
#X obj 300 548 - 100;
#X obj 301 577 vu 15 120 empty empty -1 -8 0 10 #404040 #000000 1 0;
#X obj 170 232 line;
#X msg 170 207 \$1 50;
#X obj 248 132 n-scale 0 1 1;
#X obj 405 107 n-scale 0 1 1;
#X obj 531 46 env~ 8192;
#X obj 532 73 - 100;
#X obj 533 102 vu 15 120 empty empty -1 -8 0 10 #404040 #000000 1 0;
#X msg 388 599 \$2 \$1;
#X obj 388 706 s \$2-\$3-vu;
#X obj 388 624 unpack 0 0;
#X obj 389 675 pack 0 0;
#X obj 388 649 - 1;
#X obj 18 478 leveler~ 140 140, f 48;
#X obj 84 388 route ramp-up ramp-down min-amp max-amp exp-base;
#X msg 93 832 mlevel \$2 \$1;
#X obj 93 807 pack 0 \$1;
#X floatatom 84 420 5 0 0 0 - - - 0;
#X floatatom 150 421 5 0 0 0 - - - 0;
#X floatatom 217 421 5 0 0 0 - - - 0;
#X floatatom 284 422 5 0 0 0 - - - 0;
#X floatatom 350 422 5 0 0 0 - - - 0;
#X obj 93 601 * 100;
#X obj 93 626 int;
#X obj 93 651 / 100;
#X obj 328 191 * 1;
#X obj 18 88 n-scale 0 50 1;
#X floatatom 687 342 5 0 0 0 - - - 0;
#X msg 687 282 0;
#X obj 764 92 vsl 20 170 0 1 0 0 empty empty empty 0 -9 0 12 #fcfcfc #000000 #000000 0 1;
#X floatatom 764 270 5 0 0 0 - - - 0;
#X obj 306 89 expr 1000/$f1;
#X obj 405 228 * 1;
#X obj 170 82 n-scale 0.1 1 1;
#X obj 687 317 calc-partial-bw \$1 2 0.001 1;
#X obj 687 447 line;
#X msg 687 421 \$1 50;
#N canvas 693 683 450 300 bwcttoq 0;
#X obj 157 18 inlet;
#X obj 157 172 outlet;
#X obj 157 120 expr pow($f1 \, 0.5) / ($f1 - 1);
#X obj 157 70 expr pow(2 \, $f1/12);
#X floatatom 157 95 5 0 0 0 - - - 0;
#X floatatom 157 145 5 0 0 0 - - - 0;
#X connect 0 0 3 0;
#X connect 2 0 5 0;
#X connect 3 0 4 0;
#X connect 4 0 2 0;
#X connect 5 0 1 0;
#X restore 687 370 pd bwcttoq;
#X floatatom 687 395 5 0 0 0 - - - 0;
#X obj 18 300 ./reson~ 1 440 10;
#X obj 597 390 line;
#X msg 597 364 \$1 50;
#X obj 18 52 route gain base-freq q delay level osc-level latency-comp, f 66;
#X floatatom 647 112 5 0 0 0 - - - 0;
#X obj 247 211 +;
#X obj 647 134 t b f;
#X connect 0 0 77 0;
#X connect 1 0 2 0;
#X connect 2 0 20 0;
#X connect 2 0 48 6;
#X connect 2 0 66 0;
#X connect 2 0 74 2;
#X connect 3 0 7 1;
#X connect 3 0 40 0;
#X connect 3 0 74 0;
#X connect 4 0 48 0;
#X connect 5 0 7 0;
#X connect 6 0 5 0;
#X connect 8 0 10 1;
#X connect 9 0 8 0;
#X connect 10 0 11 0;
#X connect 10 0 30 0;
#X connect 12 0 74 1;
#X connect 13 0 1 0;
#X connect 14 0 37 0;
#X connect 15 0 60 0;
#X connect 16 0 79 0;
#X connect 17 0 21 1;
#X connect 18 0 17 0;
#X connect 19 0 67 0;
#X connect 20 0 21 0;
#X connect 21 0 30 0;
#X connect 21 0 10 0;
#X connect 22 0 23 0;
#X connect 23 0 18 0;
#X connect 30 0 34 0;
#X connect 30 0 57 0;
#X connect 31 0 51 0;
#X connect 33 0 31 0;
#X connect 34 0 35 0;
#X connect 37 0 36 0;
#X connect 38 0 16 0;
#X connect 39 0 19 0;
#X connect 40 0 41 0;
#X connect 41 0 42 0;
#X connect 43 0 45 0;
#X connect 45 0 47 0;
#X connect 45 1 46 1;
#X connect 46 0 44 0;
#X connect 47 0 46 0;
#X connect 48 0 10 0;
#X connect 49 0 52 0;
#X connect 49 1 53 0;
#X connect 49 2 54 0;
#X connect 49 3 55 0;
#X connect 49 4 56 0;
#X connect 50 0 32 0;
#X connect 51 0 50 0;
#X connect 51 0 43 0;
#X connect 52 0 48 1;
#X connect 53 0 48 2;
#X connect 54 0 48 3;
#X connect 55 0 48 4;
#X connect 56 0 48 5;
#X connect 57 0 58 0;
#X connect 58 0 59 0;
#X connect 59 0 33 0;
#X connect 60 0 9 0;
#X connect 61 0 12 0;
#X connect 62 0 72 0;
#X connect 62 0 76 0;
#X connect 63 0 69 0;
#X connect 64 0 65 0;
#X connect 65 0 69 0;
#X connect 66 0 38 2;
#X connect 67 0 18 0;
#X connect 68 0 14 0;
#X connect 69 0 62 0;
#X connect 71 0 70 0;
#X connect 72 0 73 0;
#X connect 73 0 71 0;
#X connect 74 0 4 0;
#X connect 75 0 74 4;
#X connect 76 0 75 0;
#X connect 77 0 61 0;
#X connect 77 1 13 0;
#X connect 77 2 68 0;
#X connect 77 2 69 0;
#X connect 77 3 38 0;
#X connect 77 4 15 0;
#X connect 77 5 39 0;
#X connect 77 6 78 0;
#X connect 77 7 49 0;
#X connect 78 0 80 0;
#X connect 79 0 4 1;
#X connect 80 0 16 0;
#X connect 80 1 79 1;
