#N canvas 1281 120 450 755 12;
#X floatatom 104 211 5 0 0 0 - - - 0;
#X obj 104 181 netsend -b -u;
#X obj 109 18 inlet;
#X msg 47 95 disconnect \, connect \$1 \$2;
#X obj 48 71 list;
#X obj 166 140 print osc-orgel01-out;
#X obj 109 43 route ip out;
#X connect 1 0 0 0;
#X connect 2 0 6 0;
#X connect 3 0 1 0;
#X connect 4 0 3 0;
#X connect 6 0 4 0;
#X connect 6 2 1 0;
