#N canvas 2304 40 733 514 12;
#X obj 39 34 nbx 3 30 0 127 0 0 \$0-preset-no \$0-preset-no empty 0 -10 0 24 #fcfcfc #000000 #000000 0 256;
#X obj 166 46 bng 20 250 50 0 \$0-prev-preset \$0-prev-preset prev-preset 30 10 0 12 #fcfcfc #000000 #000000;
#X obj 166 21 bng 20 250 50 0 \$0-next-preset \$0-next-preset next-preset 30 10 0 12 #fcfcfc #000000 #000000;
#X obj 169 148 r \$0-next-preset;
#X obj 49 148 r \$0-prev-preset;
#X obj 49 173 bng 20 250 50 0 empty empty empty 0 -10 0 12 #fcfcfc #000000 #000000;
#X obj 169 173 bng 20 250 50 0 empty empty empty 0 -10 0 12 #fcfcfc #000000 #000000;
#X obj 306 46 bng 20 250 50 0 \$0-store-preset \$0-store-preset store-preset 30 10 0 12 #fcfcfc #000000 #000000;
#X obj 306 21 bng 20 250 50 0 \$0-recall-preset \$0-recall-preset recall-preset 30 10 0 12 #fcfcfc #000000 #000000;
#X obj 54 252 bng 20 250 50 0 empty empty empty 0 -10 0 12 #fcfcfc #000000 #000000;
#X obj 190 252 bng 20 250 50 0 empty empty empty 0 -10 0 12 #fcfcfc #000000 #000000;
#X obj 54 227 r \$0-recall-preset;
#X obj 190 227 r \$0-store-preset;
#X obj 465 46 bng 20 250 50 0 \$0-save-presets \$0-save-presets save-presets 30 10 0 12 #fcfcfc #000000 #000000;
#X obj 465 21 bng 20 250 50 0 \$0-load-presets \$0-load-presets load-presets 30 10 0 12 #fcfcfc #000000 #000000;
#X obj 337 170 bng 20 250 50 0 empty empty empty 0 -10 0 12 #fcfcfc #000000 #000000;
#X obj 349 252 bng 20 250 50 0 empty empty empty 0 -10 0 12 #fcfcfc #000000 #000000;
#X obj 337 145 r \$0-load-presets;
#X obj 349 227 r \$0-save-presets;
#X msg 49 200 prev-preset;
#X msg 170 200 next-preset;
#X msg 54 278 recall-preset;
#X msg 190 280 store-preset;
#X msg 334 197 load-presets;
#X msg 349 280 save-presets;
#X obj 270 408 list prepend preset-ctl;
#X obj 270 433 list trim;
#X obj 270 458 s \$1-ctl;
#X obj 561 257 r \$1-preset-ctl;
#X obj 561 289 route preset-no;
#X obj 561 342 s \$0-preset-no;
#X msg 561 314 set \$1;
#X obj 539 146 r \$0-preset-no;
#X floatatom 539 171 5 0 0 0 - - - 0;
#X msg 539 196 preset-no \$1;
#X obj 524 314 bng 20 250 50 0 empty empty empty 0 -10 0 12 #fcfcfc #000000 #000000;
#X connect 3 0 6 0;
#X connect 4 0 5 0;
#X connect 5 0 19 0;
#X connect 6 0 20 0;
#X connect 9 0 21 0;
#X connect 10 0 22 0;
#X connect 11 0 9 0;
#X connect 12 0 10 0;
#X connect 15 0 23 0;
#X connect 16 0 24 0;
#X connect 17 0 15 0;
#X connect 18 0 16 0;
#X connect 19 0 25 0;
#X connect 20 0 25 0;
#X connect 21 0 25 0;
#X connect 22 0 25 0;
#X connect 23 0 25 0;
#X connect 24 0 25 0;
#X connect 25 0 26 0;
#X connect 26 0 27 0;
#X connect 28 0 29 0;
#X connect 29 0 31 0;
#X connect 29 0 35 0;
#X connect 31 0 30 0;
#X connect 32 0 33 0;
#X connect 33 0 34 0;
#X connect 34 0 25 0;
#X coords 0 -1 1 1 600 100 2 10 10;
