#N canvas 136 63 524 306 12;
#X obj 33 19 inlet~;
#X obj 33 261 outlet~;
#X obj 427 99 f \$1;
#X obj 480 97 f \$2;
#X obj 34 229 *~;
#X obj 521 98 f \$3;
#X obj 448 19 loadbang;
#X obj 448 44 bng 20 250 50 0 empty empty empty 0 -10 0 12 #fcfcfc #000000 #000000;
#X obj 448 69 t b b b;
#X floatatom 52 139 5 0 0 0 - - - 0;
#X floatatom 100 142 5 0 0 0 - - - 0;
#X floatatom 174 139 5 0 0 0 - - - 0;
#X obj 35 198 biquad~;
#N canvas 0 0 450 300 calc-biquad 0;
#X obj 88 6 inlet freq;
#X obj 393 40 inlet Q;
#X obj 233 145 samplerate~;
#X obj 233 117 bng 20 250 50 0 empty empty empty 0 -10 0 12 #fcfcfc #000000 #000000;
#X obj 83 102 t f b;
#X obj 82 184 expr $f1/$f2 * 6.28319;
#X floatatom 82 308 20 0 0 0 - - - 0;
#X text 29 308 omega;
#X floatatom 253 172 5 0 0 0 - - - 0;
#X text 399 164 BWO;
#X obj 351 202 t b f;
#X floatatom 83 368 20 0 0 0 - - - 0;
#X text 35 369 alpha;
#X obj 82 209 t f f;
#X obj 69 827 outlet;
#X obj 82 344 expr sin($f1)*sinh((log(2)/2)*$f2*($f1/sin($f1)));
#X floatatom 38 147 10 0 0 0 - - - 0;
#X obj 422 310 * 0.01;
#X obj 55 454 + 1;
#X floatatom 55 481 12 0 0 0 - - - 0;
#X text 17 482 a0;
#X floatatom 184 479 12 0 0 0 - - - 0;
#X floatatom 324 479 20 0 0 0 - - - 0;
#X floatatom 426 539 12 0 0 0 - - - 0;
#X msg 543 586 0;
#X obj 541 558 bng 20 250 50 0 empty empty empty 0 -10 0 12 #fcfcfc #000000 #000000;
#X obj 541 530 loadbang;
#X obj 185 453 expr 2*cos($f1);
#X text 158 479 -a1;
#X obj 325 452 expr $f1 - 1;
#X text 295 478 -a2;
#X obj 83 392 t f f;
#X text 513 590 b1;
#X obj 69 798 pack 0 0 0 0 0;
#X listbox 133 829 50 0 0 0 - - - 0;
#X obj 68 708 expr $f2/$f1 \; $f3/$f1 \; $f4/$f1 \; $f5/$f1;
#X obj 647 579 expr 0 - $f1;
#X floatatom 647 604 12 0 0 0 - - - 0;
#X text 399 538 b0;
#X text 620 606 b2;
#X obj 394 72 expr 1/($f1*$f1);
#X floatatom 394 140 12 0 0 0 - - - 0;
#X obj 394 100 expr 200*(log(1+ (0.5*$f1) + pow((pow(2+$f1 \, 2)/4)-1 \, 0.5)))/log(2);
#X obj 588 36 inlet bwo;
#X text 551 234 calculation of biquad coeffs as in ggee/bandpass;
#X text 550 270 the bwo inlet sets bw in Octaves like in the ggee external (one Octave = 100);
#X text 551 315 the Q inlet sets bw as Q like in a traditional approach.;
#X text 554 353 for the algorithm used \, see:;
#X text 556 377 https://www.w3.org/TR/audio-eq-cookbook/;
#X text 558 450 for the conversion between q and bw see:;
#X text 559 469 https://sengpielaudio.com/calculator-bandwidth.htm;
#X text 553 396 from the Text by Robert Bristow-Johnson;
#X floatatom 588 64 12 0 0 0 - - - 0;
#X obj 84 68 f;
#X connect 0 0 53 0;
#X connect 1 0 40 0;
#X connect 2 0 5 1;
#X connect 2 0 8 0;
#X connect 3 0 2 0;
#X connect 4 0 5 0;
#X connect 4 0 16 0;
#X connect 4 1 2 0;
#X connect 5 0 13 0;
#X connect 6 0 15 0;
#X connect 10 0 4 0;
#X connect 10 0 53 0;
#X connect 10 1 17 0;
#X connect 11 0 31 0;
#X connect 13 0 6 0;
#X connect 13 1 27 0;
#X connect 15 0 11 0;
#X connect 17 0 15 1;
#X connect 18 0 19 0;
#X connect 19 0 35 0;
#X connect 21 0 35 1;
#X connect 22 0 35 2;
#X connect 23 0 35 3;
#X connect 23 0 36 0;
#X connect 24 0 33 3;
#X connect 25 0 24 0;
#X connect 26 0 25 0;
#X connect 27 0 21 0;
#X connect 29 0 22 0;
#X connect 31 0 18 0;
#X connect 31 1 23 0;
#X connect 31 1 29 0;
#X connect 33 0 14 0;
#X connect 33 0 34 0;
#X connect 35 0 33 0;
#X connect 35 1 33 1;
#X connect 35 2 33 2;
#X connect 35 3 33 4;
#X connect 36 0 37 0;
#X connect 37 0 35 4;
#X connect 40 0 42 0;
#X connect 41 0 10 0;
#X connect 42 0 41 0;
#X connect 43 0 10 0;
#X connect 43 0 52 0;
#X connect 53 0 4 0;
#X restore 100 172 pd calc-biquad;
#X floatatom 225 142 5 0 0 0 - - - 0;
#X obj 315 44 / 0.12;
#X obj 315 19 inlet bw-midict;
#X obj 247 20 inlet Q;
#X obj 171 19 inlet freq;
#X obj 91 19 inlet gain;
#X floatatom 315 69 5 0 0 0 - - - 0;
#X text 365 71 bwo;
#X connect 0 0 12 0;
#X connect 2 0 9 0;
#X connect 3 0 10 0;
#X connect 4 0 1 0;
#X connect 5 0 11 0;
#X connect 6 0 7 0;
#X connect 7 0 8 0;
#X connect 8 0 2 0;
#X connect 8 1 3 0;
#X connect 8 2 5 0;
#X connect 9 0 4 1;
#X connect 10 0 13 0;
#X connect 11 0 13 1;
#X connect 12 0 4 0;
#X connect 13 0 12 0;
#X connect 14 0 13 2;
#X connect 15 0 14 0;
#X connect 15 0 20 0;
#X connect 16 0 15 0;
#X connect 17 0 11 0;
#X connect 18 0 10 0;
#X connect 19 0 9 0;
