#N canvas 2018 22 1062 812 12;
#X obj 182 18 loadbang;
#X floatatom 233 332 5 0 0 0 - - - 0;
#X floatatom 416 329 5 0 0 0 - - - 0;
#X obj 110 357 expr ($f1-\\\$1)/$f2;
#X floatatom 112 384 10 0 0 0 - - - 0;
#X obj 40 516 spigot;
#X obj 79 484 == 0;
#X obj 165 570 spigot;
#X obj 151 483 > 0;
#X obj 204 484 < 0;
#X obj 112 408 t f f, f 6;
#X obj 112 571 spigot;
#X obj 182 44 bng 15 250 50 0 empty empty empty 17 7 0 10 #fcfcfc #000000
#000000;
#X msg 35 335 0.1;
#X obj 233 202 f \$2;
#X obj 233 307 - \$1;
#X obj 416 304 - \$3;
#X obj 416 199 f \$4;
#X obj 40 544 bng 15 250 50 0 empty empty empty 17 7 0 10 #fcfcfc #000000
#000000;
#X obj 40 568 f \$3;
#X obj 110 329 inlet;
#X text 269 306 in_high - in_low;
#X text 457 306 out_high - out_low;
#X text 248 358 (x - in_low) / (in_high - in_low);
#X obj 112 673 outlet;
#X text -39 570 out_low;
#X text -38 547 case 1:;
#X text 358 627 case 2:;
#X text 471 600 case 3:;
#X obj 274 20 inlet in_low;
#X obj 368 19 inlet in_high;
#X obj 481 19 inlet out_low;
#X obj 585 19 inlet out_high;
#X obj 699 18 inlet curvature;
#X obj 699 82 f \$5;
#X obj 699 107 sel 0;
#X msg 699 132 1;
#X floatatom 699 157 5 0 0 0 - - - 0;
#X obj 112 626 expr $f3 + ($f2 * pow($f1 \, $f4));
#X obj 463 75 f \$3;
#X obj 463 175 t b f;
#X obj 274 175 t b f;
#X obj 274 71 f \$1;
#X obj 165 598 expr $f3 + (-1 * $f2 * pow($f1 * -1 \, $f4));
#X text 240 485 3 cases;
#X obj 233 226 sel 0;
#X msg 233 251 1;
#X floatatom 233 276 5 0 0 0 - - - 0;
#X obj 274 96 sel 0;
#X floatatom 274 149 5 0 0 0 - - - 0;
#X obj 416 224 sel 0;
#X msg 416 249 1;
#X floatatom 416 274 5 0 0 0 - - - 0;
#X obj 463 102 sel 0;
#X floatatom 463 152 5 0 0 0 - - - 0;
#X msg 274 124 0;
#X msg 463 127 0;
#X connect 0 0 12 0;
#X connect 1 0 3 1;
#X connect 2 0 38 1;
#X connect 2 0 43 1;
#X connect 3 0 4 0;
#X connect 4 0 10 0;
#X connect 5 0 18 0;
#X connect 6 0 5 1;
#X connect 7 0 43 0;
#X connect 8 0 11 1;
#X connect 9 0 7 1;
#X connect 10 0 5 0;
#X connect 10 0 7 0;
#X connect 10 0 11 0;
#X connect 10 1 9 0;
#X connect 10 1 8 0;
#X connect 10 1 6 0;
#X connect 11 0 38 0;
#X connect 12 0 14 0;
#X connect 12 0 17 0;
#X connect 12 0 42 0;
#X connect 12 0 39 0;
#X connect 12 0 34 0;
#X connect 13 0 3 0;
#X connect 14 0 45 0;
#X connect 15 0 1 0;
#X connect 16 0 2 0;
#X connect 17 0 50 0;
#X connect 18 0 19 0;
#X connect 19 0 24 0;
#X connect 20 0 3 0;
#X connect 29 0 42 0;
#X connect 30 0 14 0;
#X connect 31 0 39 0;
#X connect 32 0 17 0;
#X connect 33 0 34 0;
#X connect 34 0 35 0;
#X connect 35 0 36 0;
#X connect 35 1 37 0;
#X connect 36 0 37 0;
#X connect 37 0 43 3;
#X connect 37 0 38 3;
#X connect 38 0 24 0;
#X connect 39 0 53 0;
#X connect 40 0 17 0;
#X connect 40 1 16 1;
#X connect 40 1 43 2;
#X connect 40 1 38 2;
#X connect 41 0 14 0;
#X connect 41 1 15 1;
#X connect 42 0 48 0;
#X connect 43 0 24 0;
#X connect 45 0 46 0;
#X connect 45 1 47 0;
#X connect 46 0 47 0;
#X connect 47 0 15 0;
#X connect 48 0 55 0;
#X connect 48 1 49 0;
#X connect 49 0 41 0;
#X connect 50 0 51 0;
#X connect 50 1 52 0;
#X connect 51 0 52 0;
#X connect 52 0 16 0;
#X connect 53 0 56 0;
#X connect 53 1 54 0;
#X connect 54 0 40 0;
#X connect 55 0 49 0;
#X connect 56 0 54 0;
