#N canvas 1466 683 450 300 12;
#X obj 73 190 rpole~;
#X obj 73 166 /~ 1;
#X obj 112 166 expr ($f1-1)/$f1;
#X obj 19 75 inlet~;
#X obj 73 218 outlet~;
#X obj 98 75 inlet;
#X floatatom 98 113 5 0 0 0 - - - 0;
#X text 142 114 ramp;
#X obj 142 50 loadbang;
#X msg 142 75 1;
#X text 17 26 like Max/MSP's slide~ with one ramp value for up and down;
#X connect 0 0 4 0;
#X connect 1 0 0 0;
#X connect 2 0 0 1;
#X connect 3 0 1 0;
#X connect 5 0 6 0;
#X connect 6 0 1 1;
#X connect 6 0 2 0;
#X connect 8 0 9 0;
#X connect 9 0 6 0;
