#N canvas 0 0 970 572 12;
#X floatatom 19 40 5 0 0 0 - - - 0;
#X obj 19 15 r \$2-\$3-\$1-\$4;
#X obj 121 15 loadbang;
#X obj 121 43 bng 15 250 50 0 empty empty empty 17 7 0 10 #fcfcfc #000000
#000000;
#X obj 19 194 s \$2-ctl;
#X obj 197 67 symbol \$4;
#X obj 121 66 symbol \$3;
#X obj 19 64 pack 0 \$1 s s;
#X msg 19 126 \$3 \$4 \$2 \$1;
#X connect 0 0 7 0;
#X connect 1 0 0 0;
#X connect 2 0 3 0;
#X connect 3 0 6 0;
#X connect 3 0 5 0;
#X connect 5 0 7 3;
#X connect 6 0 7 2;
#X connect 7 0 8 0;
#X connect 8 0 4 0;
