#N struct 1645-rectangle float x float c;
#N struct 1645-pixel float x0 float y0;
#N struct 1645-slider float x float y float w float h float c;
#N canvas 1977 301 926 717 12;
#X obj 185 292 symbol \$3;
#X obj 115 237 loadbang;
#X obj 18 318 unpack 0 0;
#X obj 53 618 pack 0 0 \$1 s s, f 17;
#X obj 105 293 symbol \$2;
#X obj 115 265 bng 15 250 50 0 empty empty empty 17 7 0 10 #fcfcfc
#000000 #000000;
#X obj 8 205 clone -s 1 vsl-relay 16 \$1 \$2 \$3;
#X obj 18 290 route \$3;
#X obj 10 10 cnv 15 120 15 empty empty \$3 0 8 0 7 #404040 #00ff04
0;
#X obj 18 263 route \$2;
#X obj 18 238 r \$1-ctl;
#X msg 297 64 orgel01 level 3 75;
#X obj 297 89 s \$1-ctl;
#X obj 417 218 route orgel01;
#X obj 417 243 route level;
#X listbox 417 268 20 0 0 0 - - - 0;
#X obj 29 343 - 1;
#X msg 186 33 set \$1 \$2;
#X obj 30 370 pack 0 0;
#X obj 275 474 route set list;
#X obj 320 502 bng 15 250 50 0 empty empty empty 17 7 0 10 #fcfcfc
#000000 #000000;
#X msg 53 642 \; \$3-ctl \$4 \$5 \$1 \$2;
#X obj 23 560 unpack 0 0;
#X obj 23 584 + 1;
#X obj 10 26 msln 120 66 0 16 \$0-level-1 \$1-colors;
#X connect 0 0 3 4;
#X connect 1 0 5 0;
#X connect 2 0 16 0;
#X connect 2 1 18 1;
#X connect 3 0 21 0;
#X connect 4 0 3 3;
#X connect 5 0 4 0;
#X connect 5 0 0 0;
#X connect 7 0 2 0;
#X connect 9 0 7 0;
#X connect 10 0 9 0;
#X connect 11 0 12 0;
#X connect 11 0 13 0;
#X connect 13 0 14 0;
#X connect 14 0 15 0;
#X connect 16 0 18 0;
#X connect 17 0 24 0;
#X connect 18 0 17 0;
#X connect 19 1 20 0;
#X connect 19 1 22 0;
#X connect 22 0 23 0;
#X connect 22 1 3 1;
#X connect 23 0 3 0;
#X connect 24 0 19 0;
#X coords 0 -1 1 1 120 82 2 10 10;
