#N canvas 2599 3 577 532 12;
#X obj 10 42 vsl 15 128 0 1 0 0 \$1-\$2-1-\$3 \$1-\$2-1-\$3 1 5 7
0 8 #7c7c7c #dfdfdf #000000 0 1;
#X obj 185 292 symbol \$3;
#X obj 115 237 loadbang;
#X obj 18 318 unpack 0 0;
#X obj 18 361 pack 0 0 \$1 s s, f 17;
#X obj 105 293 symbol \$2;
#X obj 115 265 bng 15 250 50 0 empty empty empty 17 7 0 10 #fcfcfc
#000000 #000000;
#X listbox 17 466 30 0 0 0 - - - 0;
#X msg 35 394 \; \$3-\$4-\$1-\$5 set \$2;
#X obj 8 205 clone -s 1 vsl-relay 16 \$1 \$2 \$3;
#X obj 25 42 vsl 15 128 0 1 0 0 \$1-\$2-2-\$3 \$1-\$2-2-\$3 2 5 7
0 8 #7c7c7c #dfdfdf #000000 0 1;
#X obj 40 42 vsl 15 128 0 1 0 0 \$1-\$2-3-\$3 \$1-\$2-3-\$3 3 5 7
0 8 #00faff #000000 #000000 0 1;
#X obj 55 42 vsl 15 128 0 1 0 0 \$1-\$2-4-\$3 \$1-\$2-4-\$3 4 5 7
0 8 #7c7c7c #dfdfdf #000000 0 1;
#X obj 70 42 vsl 15 128 0 1 0 0 \$1-\$2-5-\$3 \$1-\$2-5-\$3 5 5 7
0 8 #ffc7c6 #000000 #000000 0 1;
#X obj 85 42 vsl 15 128 0 1 0 0 \$1-\$2-6-\$3 \$1-\$2-6-\$3 6 5 7
0 8 #00faff #000000 #000000 0 1;
#X obj 100 42 vsl 15 128 0 1 0 0 \$1-\$2-7-\$3 \$1-\$2-7-\$3 7 5
7 0 8 #feffc6 #000000 #000000 0 1;
#X obj 115 42 vsl 15 128 0 1 0 0 \$1-\$2-8-\$3 \$1-\$2-8-\$3 8 5
7 0 8 #7c7c7c #dfdfdf #000000 0 1;
#X obj 130 42 vsl 15 128 0 1 0 0 \$1-\$2-9-\$3 \$1-\$2-9-\$3 9 5
7 0 8 #dfdfdf #000000 #000000 0 1;
#X obj 145 42 vsl 15 128 0 1 0 0 \$1-\$2-10-\$3 \$1-\$2-10-\$3 10
2 7 0 8 #ffc7c6 #000000 #000000 0 1;
#X obj 160 42 vsl 15 128 0 1 0 0 \$1-\$2-11-\$3 \$1-\$2-11-\$3 11
2 7 0 8 #dfdfdf #000000 #000000 0 1;
#X obj 175 42 vsl 15 128 0 1 0 0 \$1-\$2-12-\$3 \$1-\$2-12-\$3 12
2 7 0 8 #00faff #000000 #000000 0 1;
#X obj 190 42 vsl 15 128 0 1 0 0 \$1-\$2-13-\$3 \$1-\$2-13-\$3 13
2 7 0 8 #dfdfdf #000000 #000000 0 1;
#X obj 205 42 vsl 15 128 0 1 0 0 \$1-\$2-14-\$3 \$1-\$2-14-\$3 14
2 7 0 8 #feffc6 #000000 #000000 0 1;
#X obj 220 42 vsl 15 128 0 1 0 0 \$1-\$2-15-\$3 \$1-\$2-15-\$3 15
2 7 0 8 #dfdfdf #000000 #000000 0 1;
#X obj 235 42 vsl 15 128 0 1 0 0 \$1-\$2-16-\$3 \$1-\$2-16-\$3 16
2 7 0 8 #7c7c7c #dfdfdf #000000 0 1;
#X obj 18 290 route \$3;
#X obj 10 10 cnv 15 240 30 empty empty \$3 0 12 0 14 #404040 #00ff04
0;
#X obj 18 263 route \$2;
#X obj 18 238 r \$1-ctl;
#X msg 18 440 list \$3-ctl \$4 \$5 \$1 \$2;
#X msg 297 64 orgel01 level 3 75;
#X obj 297 89 s \$1-ctl;
#X obj 417 218 route orgel01;
#X obj 417 243 route level;
#X listbox 417 268 20 0 0 0 - - - 0;
#X connect 1 0 4 4;
#X connect 2 0 6 0;
#X connect 3 0 4 0;
#X connect 3 1 4 1;
#X connect 4 0 8 0;
#X connect 4 0 29 0;
#X connect 5 0 4 3;
#X connect 6 0 5 0;
#X connect 6 0 1 0;
#X connect 25 0 3 0;
#X connect 27 0 25 0;
#X connect 28 0 27 0;
#X connect 29 0 7 0;
#X connect 30 0 31 0;
#X connect 30 0 32 0;
#X connect 32 0 33 0;
#X connect 33 0 34 0;
#X coords 0 -1 1 1 240 163 1 10 10;
