#N canvas 862 166 807 820 12;
#X obj 199 225 bng 20 250 50 0 empty empty empty 0 -10 0 12 #fcfcfc #000000 #000000;
#N canvas 0 50 450 250 (subpatch) 0;
#X array \$0-array 10 float 3;
#A 0 1 0 0 0 0 0 0 0 0 0;
#X coords 0 1 10 -1 200 140 1;
#X restore 179 65 graph;
#X obj 1 22 inlet;
#X obj 199 307 outlet~;
#X obj 55 207 loadbang;
#X obj 55 231 f \$0;
#X msg 55 340 \; \$1-array 0 1 0 0 0 0 0 0 0 0 0;
#X obj 198 282 tabplay~ \$0-array;
#X connect 0 0 7 0;
#X connect 2 0 0 0;
#X connect 4 0 5 0;
#X connect 5 0 6 0;
#X connect 7 0 3 0;
