#N canvas 2329 43 496 196 12;
#N canvas 2484 23 509 601 sub-slide~ 1;
#X obj 57 87 inlet~;
#X obj 57 54 table \$0-n 1;
#X obj 117 89 tabreceive~ \$0-n;
#X obj 75 515 tabsend~ \$0-n;
#X obj 59 543 outlet~;
#X obj 272 293 sig~;
#X obj 339 291 sig~;
#X obj 56 347 -~;
#X text 149 112 y(n-1);
#X obj 57 426 /~;
#X obj 58 485 +~, f 9;
#X obj 250 90 inlet slide-up;
#X obj 364 90 inlet slide-down;
#X text 131 484 y(n-1) + ((x(n) - y(n-1)) / slide);
#X obj 285 125 loadbang;
#X obj 272 169 f \$1;
#X msg 272 242 1;
#X floatatom 272 267 5 0 0 0 - - - 0;
#X msg 339 242 1;
#X floatatom 339 267 5 0 0 0 - - - 0;
#X obj 339 169 f \$2;
#X obj 272 221 bng 15 250 50 0 empty empty empty 17 7 0 10 #fcfcfc #000000 #000000;
#X obj 339 221 bng 15 250 50 0 empty empty empty 17 7 0 10 #fcfcfc #000000 #000000;
#X text 14 111 x(n);
#X obj 364 115 route set;
#X obj 206 128 route set;
#X obj 207 40 block~ 1 1 1;
#X obj 272 195 moses 1e-26;
#X obj 381 194 moses 1e-26;
#X obj 140 348 expr~ if ($v1<=$v2 \, $v4 \, $v3);
#X connect 0 0 7 0;
#X connect 0 0 29 0;
#X connect 2 0 7 1;
#X connect 2 0 10 1;
#X connect 2 0 29 1;
#X connect 5 0 29 2;
#X connect 6 0 29 3;
#X connect 7 0 9 0;
#X connect 9 0 10 0;
#X connect 10 0 3 0;
#X connect 10 0 4 0;
#X connect 11 0 25 0;
#X connect 12 0 24 0;
#X connect 14 0 15 0;
#X connect 14 0 20 0;
#X connect 15 0 27 0;
#X connect 16 0 17 0;
#X connect 17 0 5 0;
#X connect 18 0 19 0;
#X connect 19 0 6 0;
#X connect 20 0 28 0;
#X connect 21 0 16 0;
#X connect 22 0 18 0;
#X connect 24 1 20 0;
#X connect 25 1 15 0;
#X connect 27 0 21 0;
#X connect 27 1 17 0;
#X connect 28 0 22 0;
#X connect 28 1 19 0;
#X connect 29 0 9 1;
#X restore 62 90 pd sub-slide~;
#X obj 63 36 inlet~;
#X obj 63 143 outlet~;
#X obj 113 36 inlet slide-up;
#X obj 226 36 inlet slide-down;
#X connect 0 0 2 0;
#X connect 1 0 0 0;
#X connect 3 0 0 1;
#X connect 4 0 0 2;
